<svg width="181" height="183" viewBox="0 0 181 183" fill="none" xmlns="http://www.w3.org/2000/svg">
<path d="M151.991 43.1628C157.645 43.1631 162.228 47.7459 162.228 53.3992C162.228 59.0523 157.645 63.6352 151.991 63.6355H130.118V43.1628H151.991Z" stroke="#2F2D2B" stroke-width="1.63636"/>
<path d="M90.8043 94.6147C106.956 94.6147 121.55 96.3389 132.081 99.1118C137.352 100.5 141.559 102.139 144.429 103.925C147.343 105.739 148.654 107.558 148.654 109.244C148.654 110.929 147.343 112.748 144.429 114.562C141.559 116.349 137.352 117.987 132.081 119.375C121.549 122.148 106.956 123.874 90.8043 123.874C74.653 123.874 60.0591 122.148 49.528 119.375C44.2564 117.987 40.0493 116.349 37.1793 114.562C34.2659 112.748 32.9547 110.929 32.9547 109.244C32.9549 107.558 34.2661 105.739 37.1793 103.925C40.0493 102.139 44.2565 100.5 49.528 99.1118C60.0591 96.3389 74.653 94.6148 90.8043 94.6147Z" fill="#FDFDF4" stroke="#2F2D2B" stroke-width="1.63636"/>
<path d="M126.305 106.926C130.054 107.907 132.209 109.056 132.209 110.283C132.209 113.892 113.584 116.817 90.6091 116.817C67.6341 116.817 49.0091 113.892 49.0091 110.283C49.0091 109.056 51.1643 107.907 54.9127 106.926" stroke="#2F2D2B" stroke-width="1.63636" stroke-linecap="round"/>
<path d="M142.081 37.0972V76.3765C142.081 94.0766 127.732 108.426 110.032 108.426H71.577C53.8768 108.426 39.5281 94.0767 39.5281 76.3765V37.0972H142.081Z" fill="#FDFDF4" stroke="#2F2D2B" stroke-width="1.63636"/>
<path d="M67.8792 59.1184C74.0101 59.1184 79.6433 60.6022 83.7552 62.095C85.8082 62.8403 87.4747 63.5847 88.6253 64.1418C89.2004 64.4203 89.6465 64.6521 89.9466 64.8127C90.0965 64.893 90.2104 64.9554 90.2855 64.9973C90.3227 65.0181 90.3504 65.0339 90.3685 65.0442C90.3773 65.0492 90.3839 65.0536 90.388 65.0559C90.39 65.0571 90.3921 65.0574 90.3929 65.0579V65.0588L90.4378 65.0842L90.4847 65.1038V65.1047H90.4857L90.4876 65.1057C90.4894 65.1065 90.4923 65.1074 90.4954 65.1086C90.5015 65.1112 90.5099 65.1148 90.5208 65.1194C90.5434 65.1288 90.5766 65.1429 90.6194 65.1604C90.7054 65.1954 90.8317 65.2461 90.9954 65.3098C91.3229 65.4373 91.8015 65.6177 92.4124 65.8313C93.6343 66.2584 95.3883 66.8197 97.5237 67.3606C101.789 68.4409 107.606 69.4469 113.772 69.1223C119.936 68.7978 125.75 67.1779 130.01 65.6487C132.143 64.8829 133.895 64.1368 135.115 63.5813C135.381 63.46 135.622 63.3468 135.836 63.2454V75.72C135.836 90.8788 123.547 103.167 108.388 103.167H73.22C58.0613 103.167 45.7729 90.8787 45.7728 75.72V62.5237C46.0709 62.4288 46.4856 62.2996 47.0052 62.1487C48.1614 61.8128 49.836 61.3646 51.8987 60.9153C56.0276 60.0159 61.6979 59.1184 67.8792 59.1184Z" fill="#A1CBAF" stroke="#2F2D2B" stroke-width="1.63636"/>
<path d="M91.079 0.535303C90.984 0.480843 90.8889 0.426383 90.7938 0.371923C90.3663 0.747757 89.9826 1.15443 89.6182 1.58535C86.2216 5.46919 85.0931 12.1079 88.0961 17.2714C88.1977 17.4568 88.2942 17.6393 88.3863 17.8193C89.8785 20.7514 90.9354 23.9616 90.8934 28.3977C90.8843 28.9243 90.8586 29.4692 90.7975 30.0053C90.8901 30.0639 90.9827 30.1224 91.0753 30.181C91.5434 29.84 91.9663 29.4518 92.3667 29.03C95.73 25.6282 96.7583 19.4975 94.2386 14.8258C94.0957 14.5465 93.9418 14.2683 93.7767 13.9917C91.8587 10.878 90.7713 7.02651 90.9524 2.12285C90.9736 1.60188 91.0097 1.06512 91.079 0.535303Z" fill="#2F2D2B"/>
<path d="M112.483 36.9363V53.3699" stroke="#2F2D2B" stroke-width="1.63636"/>
<mask id="path-8-outside-1_609_1165" maskUnits="userSpaceOnUse" x="100.011" y="51.3989" width="25" height="26" fill="black">
<rect fill="white" x="100.011" y="51.3989" width="25" height="26"/>
<path d="M122.956 75.5083H102.011V59.2173L106.811 53.3989H118.156L122.956 59.2173V75.5083Z"/>
</mask>
<path d="M122.956 75.5083H102.011V59.2173L106.811 53.3989H118.156L122.956 59.2173V75.5083Z" fill="#F9F7D4"/>
<path d="M122.956 75.5083V77.1447H124.592V75.5083H122.956ZM102.011 75.5083H100.374V77.1447H102.011V75.5083ZM102.011 59.2173L100.748 58.176L100.374 58.6294V59.2173H102.011ZM106.811 53.3989V51.7626H106.039L105.548 52.3576L106.811 53.3989ZM118.156 53.3989L119.419 52.3576L118.928 51.7626H118.156V53.3989ZM122.956 59.2173H124.592V58.6294L124.218 58.176L122.956 59.2173ZM122.956 75.5083V73.8719H102.011V75.5083V77.1447H122.956V75.5083ZM102.011 75.5083H103.647V59.2173H102.011H100.374V75.5083H102.011ZM102.011 59.2173L103.273 60.2586L108.073 54.4402L106.811 53.3989L105.548 52.3576L100.748 58.176L102.011 59.2173ZM106.811 53.3989V55.0353H118.156V53.3989V51.7626H106.811V53.3989ZM118.156 53.3989L116.894 54.4402L121.694 60.2586L122.956 59.2173L124.218 58.176L119.419 52.3576L118.156 53.3989ZM122.956 59.2173H121.32V75.5083H122.956H124.592V59.2173H122.956Z" fill="#2F2D2B" mask="url(#path-8-outside-1_609_1165)"/>
<path d="M63.5426 167.673V145.405H67.4699V146.191H71.5936V149.922H67.4699V167.673H63.5426ZM36.3266 163.824C42.3354 161.35 45.2416 156.873 46.3019 152.985V151.061H37.4263V147.29H46.3019V145.052H50.2292V147.29H59.1441V151.061H50.2292V152.946C51.2503 156.48 54.1957 160.565 60.2045 163.039L58.7906 166.416C53.6459 164.335 50.3077 160.957 48.3441 157.658C46.459 161.311 43.0423 165.042 37.7405 167.202L36.3266 163.824ZM74.7249 167.673V161.114H78.6522V163.903H104.808V167.673H74.7249ZM73.154 154.831C73.154 152.042 76.2173 150.314 85.8784 150.314C95.618 150.314 98.4849 152.121 98.4849 154.831C98.4849 157.541 95.618 159.347 85.8784 159.347C76.2173 159.347 73.154 157.619 73.154 154.831ZM73.6646 149.607V146.151H83.8755V145.013H87.7635V146.151H97.9351V149.607H73.6646ZM77.0813 154.831C77.0813 155.459 78.1024 155.97 85.8784 155.97C93.6544 155.97 94.5577 155.498 94.5577 154.831C94.5577 154.163 93.6544 153.692 85.8784 153.692C78.1024 153.692 77.0813 154.202 77.0813 154.831ZM100.174 162.018V145.405H104.101V146.191H108.225V149.922H104.101V162.018H100.174ZM111.155 167.673V160.054H115.082V163.903H141.552V167.673H111.155ZM109.78 155.066C115.907 153.692 119.049 152.16 120.345 150.982V149.372H110.448V145.837H134.09V149.372H124.233V150.864C125.607 151.846 128.749 153.181 134.797 154.517L134.012 158.051C128.16 156.794 124.429 155.302 122.387 154.006C120.384 155.577 116.614 157.266 110.566 158.601L109.78 155.066ZM136.996 162.018V145.405H140.924V146.191H145.047V149.922H140.924V162.018H136.996Z" fill="#2F2D2B"/>
</svg>
