<svg width="358" height="620" viewBox="0 0 358 620" fill="none" xmlns="http://www.w3.org/2000/svg">
<circle cx="173" cy="4" r="4" fill="#D7D7D7"/>
<circle cx="185" cy="4" r="4" fill="#A1CBAF"/>
<rect x="13" y="59" width="115" height="16" fill="#F9F7D4"/>
<path d="M17.68 68.056V52.768H31.736V55.456H20.48V65.368H33.332V52.46H36.132V54.028H37.168V52.46H39.968V68.336H37.168V56.716H36.132V68.336H33.332V68.056H17.68ZM51.6444 61.392C56.9924 61.392 57.7204 60.86 57.7204 59.936C57.7204 59.012 56.9924 58.48 51.6444 58.48C46.2404 58.48 45.4284 59.04 45.4284 59.936C45.4284 60.832 46.2404 61.392 51.6444 61.392ZM42.4884 68.336V65.648H50.4404V63.828C44.7284 63.66 42.6284 62.148 42.6284 59.936C42.6284 57.584 45.0084 56.016 51.6444 56.016C58.2804 56.016 60.5204 57.612 60.5204 59.936C60.5204 62.064 58.6444 63.576 53.2404 63.828V65.648H61.9764V52.432H64.7764V53.02H67.7164V55.68H64.7764V68.336H42.4884ZM43.0204 55.428V52.936H50.1884V51.928H52.9604V52.936H60.1284V55.428H43.0204ZM87.9158 66.096C95.1118 66.096 96.1758 65.62 96.1758 65.228C96.1758 64.808 95.1118 64.332 87.9158 64.332C80.7198 64.332 79.6278 64.808 79.6278 65.228C79.6278 65.62 80.7198 66.096 87.9158 66.096ZM76.6878 55.456V52.768H94.0198V53.3H96.1758V52.46H98.9758V65.228C98.9758 67.496 96.5118 68.784 87.9158 68.784C79.2918 68.784 76.8278 67.468 76.8278 65.228C76.8278 62.932 79.3198 61.644 87.9158 61.644C91.8078 61.644 94.4678 61.896 96.1758 62.428V59.796H94.0198V60.776H91.2198V55.456H76.6878ZM94.0198 57.136H96.1758V55.988H94.0198V57.136ZM110.204 58.816C115.496 58.816 116 58.62 116 58.452C116 58.34 115.496 58.116 110.204 58.116C104.884 58.116 104.296 58.34 104.296 58.452C104.296 58.592 104.884 58.816 110.204 58.816ZM101.496 58.452C101.496 56.716 103.596 55.736 110.204 55.736C113.424 55.736 115.524 55.96 116.868 56.408V55.288H101.86V52.88H108.748V52.18H111.52V52.88H118.436V54.056H120.984V52.46H123.784V68.336H102.28V61.952H120.984V56.716H117.624C118.464 57.164 118.8 57.724 118.8 58.452C118.8 60.188 116.812 61.196 110.204 61.196C103.596 61.196 101.496 60.244 101.496 58.452ZM105.08 65.732H120.984V64.556H105.08V65.732Z" fill="#2F2D2B"/>
<path d="M28.015 94.315H30.085V95.41H28.015V102.31H26.815V88.615H28.015V94.315ZM22.645 97.945C22.975 98.315 23.37 98.67 23.83 99.01C24.3 99.34 24.775 99.625 25.255 99.865V101.23C24.085 100.64 23.2 100.055 22.6 99.475C22.2 99.165 21.84 98.825 21.52 98.455C21.2 98.075 20.96 97.7 20.8 97.33C20.68 97.68 20.415 98.105 20.005 98.605C19.595 99.095 19.19 99.5 18.79 99.82C18.42 100.14 18.015 100.44 17.575 100.72C17.145 101 16.735 101.215 16.345 101.365V100C17.365 99.47 18.15 98.905 18.7 98.305C19.11 97.835 19.415 97.405 19.615 97.015C19.815 96.615 19.955 96.11 20.035 95.5C20.125 94.89 20.17 94.04 20.17 92.95V91.84H16.36V90.745H20.17V88.645H21.43V90.745H25.21V91.84H21.43V92.95C21.43 94.06 21.46 94.905 21.52 95.485C21.59 96.055 21.705 96.51 21.865 96.85C22.035 97.19 22.295 97.555 22.645 97.945ZM39.0985 90.1H42.8035V91.18H34.0135V90.1H37.8385V88.375H39.0985V90.1ZM45.5785 88.615V93.055H47.5735V94.15H45.5785V99.13H44.3785V88.615H45.5785ZM38.4985 97.705C37.7285 97.705 37.0585 97.59 36.4885 97.36C35.9185 97.12 35.4785 96.785 35.1685 96.355C34.8585 95.925 34.7035 95.425 34.7035 94.855C34.7035 94.285 34.8585 93.79 35.1685 93.37C35.4785 92.94 35.9185 92.61 36.4885 92.38C37.0585 92.14 37.7285 92.02 38.4985 92.02C39.2585 92.02 39.9235 92.14 40.4935 92.38C41.0735 92.61 41.5185 92.94 41.8285 93.37C42.1485 93.79 42.3085 94.285 42.3085 94.855C42.3085 95.425 42.1485 95.925 41.8285 96.355C41.5185 96.785 41.0735 97.12 40.4935 97.36C39.9235 97.59 39.2585 97.705 38.4985 97.705ZM38.4985 93.07C37.6785 93.07 37.0385 93.235 36.5785 93.565C36.1285 93.885 35.9035 94.315 35.9035 94.855C35.9035 95.405 36.1285 95.845 36.5785 96.175C37.0385 96.495 37.6785 96.655 38.4985 96.655C39.3185 96.655 39.9585 96.495 40.4185 96.175C40.8785 95.845 41.1085 95.405 41.1085 94.855C41.1085 94.315 40.8785 93.885 40.4185 93.565C39.9585 93.235 39.3185 93.07 38.4985 93.07ZM35.3185 98.11H36.5185V101.17H45.9985V102.265H35.3185V98.11ZM59.6849 88.615V92.845H61.6799V93.94H59.6849V98.785H58.4849V88.615H59.6849ZM52.5749 93.34C52.4349 93.68 52.1749 94.055 51.7949 94.465C51.4249 94.865 51.0199 95.24 50.5799 95.59C50.1799 95.9 49.7599 96.185 49.3199 96.445C48.8899 96.705 48.5099 96.89 48.1799 97V95.71C49.0199 95.34 49.7999 94.82 50.5199 94.15C51.0799 93.63 51.4549 93.135 51.6449 92.665C51.8449 92.195 51.9449 91.59 51.9449 90.85V90.4H48.2699V89.305H56.7599V90.4H53.2049V90.85C53.2049 91.35 53.2349 91.77 53.2949 92.11C53.3649 92.45 53.4899 92.775 53.6699 93.085C53.8599 93.395 54.1399 93.715 54.5099 94.045C55.1999 94.645 56.0049 95.14 56.9249 95.53V96.805C56.0449 96.435 55.2549 96 54.5549 95.5C54.0649 95.15 53.6599 94.8 53.3399 94.45C53.0199 94.1 52.7649 93.73 52.5749 93.34ZM49.0349 97.615H50.2349V101.17H60.1049V102.265H49.0349V97.615ZM74.5264 102.31H73.3264V88.615H74.5264V102.31ZM66.9664 96.715C66.1664 96.715 65.4414 96.55 64.7914 96.22C64.1514 95.89 63.6464 95.43 63.2764 94.84C62.9164 94.25 62.7364 93.58 62.7364 92.83C62.7364 92.08 62.9164 91.415 63.2764 90.835C63.6464 90.245 64.1514 89.785 64.7914 89.455C65.4414 89.125 66.1664 88.96 66.9664 88.96C67.7664 88.96 68.4864 89.125 69.1264 89.455C69.7764 89.785 70.2864 90.245 70.6564 90.835C71.0264 91.415 71.2114 92.08 71.2114 92.83C71.2114 93.58 71.0264 94.25 70.6564 94.84C70.2864 95.43 69.7764 95.89 69.1264 96.22C68.4864 96.55 67.7664 96.715 66.9664 96.715ZM66.9664 95.62C67.8864 95.62 68.6214 95.365 69.1714 94.855C69.7214 94.345 69.9964 93.67 69.9964 92.83C69.9964 91.99 69.7214 91.32 69.1714 90.82C68.6214 90.31 67.8864 90.055 66.9664 90.055C66.0464 90.055 65.3114 90.31 64.7614 90.82C64.2214 91.32 63.9514 91.99 63.9514 92.83C63.9514 93.67 64.2214 94.345 64.7614 94.855C65.3114 95.365 66.0464 95.62 66.9664 95.62ZM72.4414 100.735H62.4064V99.64H72.4414V100.735ZM92.0898 102.31H90.8898V88.615H92.0898V102.31ZM80.2098 99.835C81.1298 99.305 81.9048 98.69 82.5348 97.99C82.9848 97.48 83.3148 97.01 83.5248 96.58C83.7348 96.14 83.8798 95.595 83.9598 94.945C84.0398 94.285 84.0798 93.35 84.0798 92.14V89.2H85.2798V92.14C85.2798 93.33 85.3148 94.24 85.3848 94.87C85.4548 95.49 85.5698 95.99 85.7298 96.37C85.8998 96.74 86.1648 97.14 86.5248 97.57C86.8548 97.99 87.2498 98.385 87.7098 98.755C88.1798 99.115 88.6548 99.42 89.1348 99.67V101.08C87.9748 100.43 87.0848 99.795 86.4648 99.175C86.0648 98.805 85.7048 98.415 85.3848 98.005C85.0748 97.585 84.8398 97.185 84.6798 96.805C84.5498 97.185 84.2798 97.65 83.8698 98.2C83.4598 98.74 83.0548 99.18 82.6548 99.52C82.2948 99.87 81.8948 100.2 81.4548 100.51C81.0248 100.83 80.6098 101.075 80.2098 101.245V99.835ZM105.461 88.615V92.8H107.456V93.895H105.461V98.695H104.261V88.615H105.461ZM101.561 91.555C101.561 92.295 101.466 92.92 101.276 93.43C101.086 93.93 100.771 94.37 100.331 94.75C99.8913 95.12 99.2863 95.465 98.5163 95.785C97.9963 95.995 97.4113 96.185 96.7613 96.355C96.1113 96.515 95.2763 96.705 94.2563 96.925V95.785C95.7663 95.505 96.9313 95.19 97.7513 94.84C98.4313 94.58 98.9563 94.3 99.3263 94C99.7063 93.69 99.9713 93.345 100.121 92.965C100.281 92.575 100.361 92.105 100.361 91.555V90.325H94.3313V89.23H101.561V91.555ZM95.2013 97.675H96.4013V101.17H105.881V102.265H95.2013V97.675ZM114.603 94.78C113.433 94.78 112.418 94.66 111.558 94.42C110.708 94.18 110.053 93.835 109.593 93.385C109.133 92.925 108.903 92.38 108.903 91.75C108.903 91.11 109.133 90.565 109.593 90.115C110.053 89.655 110.708 89.305 111.558 89.065C112.418 88.825 113.433 88.705 114.603 88.705C115.773 88.705 116.783 88.825 117.633 89.065C118.493 89.305 119.153 89.655 119.613 90.115C120.073 90.565 120.303 91.11 120.303 91.75C120.303 92.38 120.073 92.925 119.613 93.385C119.153 93.835 118.493 94.18 117.633 94.42C116.783 94.66 115.773 94.78 114.603 94.78ZM114.603 93.7C115.993 93.7 117.088 93.53 117.888 93.19C118.698 92.85 119.103 92.37 119.103 91.75C119.103 91.13 118.698 90.65 117.888 90.31C117.088 89.96 115.993 89.785 114.603 89.785C113.213 89.785 112.113 89.96 111.303 90.31C110.503 90.65 110.103 91.13 110.103 91.75C110.103 92.37 110.503 92.85 111.303 93.19C112.113 93.53 113.213 93.7 114.603 93.7ZM121.143 97.18H108.063V96.085H121.143V97.18ZM120.438 102.25H109.068V98.08H110.268V101.155H120.438V102.25ZM132.361 95.05C133.141 95.22 133.776 95.575 134.266 96.115C134.756 96.645 135.001 97.245 135.001 97.915C135.001 98.645 134.801 99.29 134.401 99.85C134.011 100.41 133.466 100.845 132.766 101.155C132.066 101.465 131.281 101.62 130.411 101.62C129.671 101.62 128.976 101.47 128.326 101.17C127.686 100.88 127.146 100.465 126.706 99.925C126.276 99.385 125.986 98.76 125.836 98.05H127.186C127.366 98.79 127.756 99.39 128.356 99.85C128.956 100.3 129.641 100.525 130.411 100.525C131.031 100.525 131.591 100.42 132.091 100.21C132.601 100.01 133.001 99.715 133.291 99.325C133.591 98.925 133.741 98.46 133.741 97.93C133.741 97.49 133.581 97.095 133.261 96.745C132.951 96.395 132.511 96.125 131.941 95.935C131.371 95.735 130.711 95.635 129.961 95.635H128.941V94.525H129.961C130.981 94.525 131.761 94.33 132.301 93.94C132.851 93.55 133.126 92.985 133.126 92.245C133.126 91.855 133.006 91.5 132.766 91.18C132.536 90.86 132.206 90.605 131.776 90.415C131.346 90.225 130.856 90.13 130.306 90.13C129.806 90.13 129.321 90.235 128.851 90.445C128.391 90.655 128.011 90.945 127.711 91.315C127.411 91.675 127.246 92.08 127.216 92.53H125.896C125.976 91.84 126.221 91.235 126.631 90.715C127.041 90.195 127.566 89.795 128.206 89.515C128.846 89.225 129.541 89.08 130.291 89.08C131.071 89.08 131.771 89.215 132.391 89.485C133.011 89.755 133.496 90.135 133.846 90.625C134.206 91.115 134.386 91.675 134.386 92.305C134.386 92.905 134.206 93.455 133.846 93.955C133.486 94.455 132.991 94.82 132.361 95.05ZM141.482 101.59C140.472 101.59 139.587 101.325 138.827 100.795C138.067 100.275 137.477 99.54 137.057 98.59C136.647 97.63 136.442 96.515 136.442 95.245C136.442 94.005 136.647 92.92 137.057 91.99C137.477 91.05 138.067 90.325 138.827 89.815C139.587 89.305 140.472 89.05 141.482 89.05C142.482 89.05 143.357 89.305 144.107 89.815C144.857 90.325 145.437 91.05 145.847 91.99C146.257 92.92 146.462 94.005 146.462 95.245C146.462 96.515 146.257 97.63 145.847 98.59C145.437 99.54 144.857 100.275 144.107 100.795C143.357 101.325 142.482 101.59 141.482 101.59ZM141.497 100.45C142.197 100.45 142.827 100.225 143.387 99.775C143.957 99.315 144.402 98.685 144.722 97.885C145.042 97.085 145.202 96.185 145.202 95.185C145.202 94.245 145.042 93.395 144.722 92.635C144.402 91.875 143.957 91.28 143.387 90.85C142.827 90.41 142.197 90.19 141.497 90.19C140.787 90.19 140.142 90.41 139.562 90.85C138.982 91.28 138.527 91.875 138.197 92.635C137.867 93.395 137.702 94.245 137.702 95.185C137.702 96.185 137.867 97.085 138.197 97.885C138.527 98.685 138.977 99.315 139.547 99.775C140.127 100.225 140.777 100.45 141.497 100.45ZM158.517 88.87H159.717V94.465H148.737V88.87H149.937V90.55H158.517V88.87ZM149.937 91.615V93.37H158.517V91.615H149.937ZM147.687 96.85V95.755H160.767V96.85H154.827V99.46H153.627V96.85H147.687ZM148.692 98.095H149.892V101.155H160.062V102.25H148.692V98.095ZM162.483 102.925H161.388L162.108 99.16H163.983L162.483 102.925ZM21.535 110.1H25.24V111.18H16.45V110.1H20.275V108.375H21.535V110.1ZM28.015 108.615V113.055H30.01V114.15H28.015V119.13H26.815V108.615H28.015ZM20.935 117.705C20.165 117.705 19.495 117.59 18.925 117.36C18.355 117.12 17.915 116.785 17.605 116.355C17.295 115.925 17.14 115.425 17.14 114.855C17.14 114.285 17.295 113.79 17.605 113.37C17.915 112.94 18.355 112.61 18.925 112.38C19.495 112.14 20.165 112.02 20.935 112.02C21.695 112.02 22.36 112.14 22.93 112.38C23.51 112.61 23.955 112.94 24.265 113.37C24.585 113.79 24.745 114.285 24.745 114.855C24.745 115.425 24.585 115.925 24.265 116.355C23.955 116.785 23.51 117.12 22.93 117.36C22.36 117.59 21.695 117.705 20.935 117.705ZM20.935 113.07C20.115 113.07 19.475 113.235 19.015 113.565C18.565 113.885 18.34 114.315 18.34 114.855C18.34 115.405 18.565 115.845 19.015 116.175C19.475 116.495 20.115 116.655 20.935 116.655C21.755 116.655 22.395 116.495 22.855 116.175C23.315 115.845 23.545 115.405 23.545 114.855C23.545 114.315 23.315 113.885 22.855 113.565C22.395 113.235 21.755 113.07 20.935 113.07ZM17.755 118.11H18.955V121.17H28.435V122.265H17.755V118.11ZM45.1135 112.995H42.0835V116.19L34.6285 116.37V108.975H35.8285V111.465H40.8835V108.975H42.0835V111.9H45.1135V108.615H46.3135V118.785H45.1135V112.995ZM35.8285 115.275L40.8835 115.125V112.53H35.8285V115.275ZM36.6085 117.54V121.17H46.6885V122.265H35.4085V117.54H36.6085ZM60.4199 122.31H59.2199V108.615H60.4199V122.31ZM52.8599 116.715C52.0599 116.715 51.3349 116.55 50.6849 116.22C50.0449 115.89 49.5399 115.43 49.1699 114.84C48.8099 114.25 48.6299 113.58 48.6299 112.83C48.6299 112.08 48.8099 111.415 49.1699 110.835C49.5399 110.245 50.0449 109.785 50.6849 109.455C51.3349 109.125 52.0599 108.96 52.8599 108.96C53.6599 108.96 54.3799 109.125 55.0199 109.455C55.6699 109.785 56.1799 110.245 56.5499 110.835C56.9199 111.415 57.1049 112.08 57.1049 112.83C57.1049 113.58 56.9199 114.25 56.5499 114.84C56.1799 115.43 55.6699 115.89 55.0199 116.22C54.3799 116.55 53.6599 116.715 52.8599 116.715ZM52.8599 115.62C53.7799 115.62 54.5149 115.365 55.0649 114.855C55.6149 114.345 55.8899 113.67 55.8899 112.83C55.8899 111.99 55.6149 111.32 55.0649 110.82C54.5149 110.31 53.7799 110.055 52.8599 110.055C51.9399 110.055 51.2049 110.31 50.6549 110.82C50.1149 111.32 49.8449 111.99 49.8449 112.83C49.8449 113.67 50.1149 114.345 50.6549 114.855C51.2049 115.365 51.9399 115.62 52.8599 115.62ZM58.3349 120.735H48.2999V119.64H58.3349V120.735ZM77.3834 114.315V108.615H78.5834V122.31H77.3834V115.41H74.7284V122.25H73.5284V108.645H74.7284V114.315H77.3834ZM71.7434 110.445H67.1834V120L72.4034 119.91V120.975L65.9834 121.155V109.35H71.7434V110.445ZM85.2428 110.055H89.0528V111.15H80.1728V110.055H83.9828V108.315H85.2428V110.055ZM91.6478 114.315H93.7928V115.41H91.6478V122.31H90.4478V108.615H91.6478V114.315ZM85.2128 119.94H89.5628V121.035H79.8878V119.94H84.0128V118.02C83.0928 117.92 82.3428 117.605 81.7628 117.075C81.1828 116.545 80.8928 115.89 80.8928 115.11C80.8928 114.54 81.0528 114.035 81.3728 113.595C81.7028 113.145 82.1478 112.8 82.7078 112.56C83.2678 112.31 83.8928 112.185 84.5828 112.185C85.2828 112.185 85.9128 112.31 86.4728 112.56C87.0428 112.8 87.4878 113.145 87.8078 113.595C88.1378 114.035 88.3028 114.54 88.3028 115.11C88.3028 115.88 88.0128 116.53 87.4328 117.06C86.8628 117.59 86.1228 117.91 85.2128 118.02V119.94ZM82.1078 115.11C82.1078 115.68 82.3328 116.14 82.7828 116.49C83.2328 116.83 83.8328 117 84.5828 117C85.3428 117 85.9478 116.83 86.3978 116.49C86.8578 116.14 87.0878 115.68 87.0878 115.11C87.0878 114.54 86.8578 114.085 86.3978 113.745C85.9478 113.405 85.3428 113.235 84.5828 113.235C83.8228 113.235 83.2178 113.405 82.7678 113.745C82.3278 114.085 82.1078 114.54 82.1078 115.11ZM106.339 114.21H95.3743V108.78H96.5743V113.115H106.339V114.21ZM107.329 116.97H94.2493V115.875H107.329V116.97ZM106.624 122.25H95.2543V117.99H96.4543V121.155H106.624V122.25ZM116.733 114.27C116.493 114.66 116.073 115.075 115.473 115.515C115.053 115.835 114.548 116.15 113.958 116.46C113.368 116.76 112.803 117 112.263 117.18V115.92C113.303 115.52 114.178 115.04 114.888 114.48C115.298 114.14 115.603 113.78 115.803 113.4C116.003 113.01 116.103 112.54 116.103 111.99V111.24H112.323V110.145H116.103V108.465H117.363V110.145H121.128V111.24H117.363V111.99C117.363 112.53 117.463 112.995 117.663 113.385C117.863 113.775 118.158 114.125 118.548 114.435C119.388 115.085 120.268 115.57 121.188 115.89V117.105C120.648 116.945 120.078 116.715 119.478 116.415C118.888 116.105 118.388 115.795 117.978 115.485C117.678 115.265 117.433 115.065 117.243 114.885C117.053 114.695 116.883 114.49 116.733 114.27ZM122.853 122.31V108.615H124.053V122.31H122.853ZM116.133 116.625H117.333V119.94H121.968V121.035H111.933V119.94H116.133V116.625ZM137.559 114.315V108.615H138.759V122.31H137.559V115.41H134.904V122.25H133.704V108.645H134.904V114.315H137.559ZM131.919 110.445H127.359V120L132.579 119.91V120.975L126.159 121.155V109.35H131.919V110.445ZM150.511 115.05C151.291 115.22 151.926 115.575 152.416 116.115C152.906 116.645 153.151 117.245 153.151 117.915C153.151 118.645 152.951 119.29 152.551 119.85C152.161 120.41 151.616 120.845 150.916 121.155C150.216 121.465 149.431 121.62 148.561 121.62C147.821 121.62 147.126 121.47 146.476 121.17C145.836 120.88 145.296 120.465 144.856 119.925C144.426 119.385 144.136 118.76 143.986 118.05H145.336C145.516 118.79 145.906 119.39 146.506 119.85C147.106 120.3 147.791 120.525 148.561 120.525C149.181 120.525 149.741 120.42 150.241 120.21C150.751 120.01 151.151 119.715 151.441 119.325C151.741 118.925 151.891 118.46 151.891 117.93C151.891 117.49 151.731 117.095 151.411 116.745C151.101 116.395 150.661 116.125 150.091 115.935C149.521 115.735 148.861 115.635 148.111 115.635H147.091V114.525H148.111C149.131 114.525 149.911 114.33 150.451 113.94C151.001 113.55 151.276 112.985 151.276 112.245C151.276 111.855 151.156 111.5 150.916 111.18C150.686 110.86 150.356 110.605 149.926 110.415C149.496 110.225 149.006 110.13 148.456 110.13C147.956 110.13 147.471 110.235 147.001 110.445C146.541 110.655 146.161 110.945 145.861 111.315C145.561 111.675 145.396 112.08 145.366 112.53H144.046C144.126 111.84 144.371 111.235 144.781 110.715C145.191 110.195 145.716 109.795 146.356 109.515C146.996 109.225 147.691 109.08 148.441 109.08C149.221 109.08 149.921 109.215 150.541 109.485C151.161 109.755 151.646 110.135 151.996 110.625C152.356 111.115 152.536 111.675 152.536 112.305C152.536 112.905 152.356 113.455 151.996 113.955C151.636 114.455 151.141 114.82 150.511 115.05ZM159.631 121.59C158.621 121.59 157.736 121.325 156.976 120.795C156.216 120.275 155.626 119.54 155.206 118.59C154.796 117.63 154.591 116.515 154.591 115.245C154.591 114.005 154.796 112.92 155.206 111.99C155.626 111.05 156.216 110.325 156.976 109.815C157.736 109.305 158.621 109.05 159.631 109.05C160.631 109.05 161.506 109.305 162.256 109.815C163.006 110.325 163.586 111.05 163.996 111.99C164.406 112.92 164.611 114.005 164.611 115.245C164.611 116.515 164.406 117.63 163.996 118.59C163.586 119.54 163.006 120.275 162.256 120.795C161.506 121.325 160.631 121.59 159.631 121.59ZM159.646 120.45C160.346 120.45 160.976 120.225 161.536 119.775C162.106 119.315 162.551 118.685 162.871 117.885C163.191 117.085 163.351 116.185 163.351 115.185C163.351 114.245 163.191 113.395 162.871 112.635C162.551 111.875 162.106 111.28 161.536 110.85C160.976 110.41 160.346 110.19 159.646 110.19C158.936 110.19 158.291 110.41 157.711 110.85C157.131 111.28 156.676 111.875 156.346 112.635C156.016 113.395 155.851 114.245 155.851 115.185C155.851 116.185 156.016 117.085 156.346 117.885C156.676 118.685 157.126 119.315 157.696 119.775C158.276 120.225 158.926 120.45 159.646 120.45ZM176.666 108.87H177.866V114.465H166.886V108.87H168.086V110.55H176.666V108.87ZM168.086 111.615V113.37H176.666V111.615H168.086ZM165.836 116.85V115.755H178.916V116.85H172.976V119.46H171.776V116.85H165.836ZM166.841 118.095H168.041V121.155H178.211V122.25H166.841V118.095ZM190.54 113.67V115.35H196.48V116.445H183.4V115.35H189.34V113.67H184.45V108.945H195.43V110.04H185.65V112.575H195.43V113.67H190.54ZM189.94 117.6C191.83 117.6 193.265 117.815 194.245 118.245C195.235 118.665 195.73 119.285 195.73 120.105C195.73 120.935 195.235 121.56 194.245 121.98C193.265 122.41 191.83 122.625 189.94 122.625C188.05 122.625 186.61 122.41 185.62 121.98C184.64 121.56 184.15 120.935 184.15 120.105C184.15 119.285 184.64 118.665 185.62 118.245C186.61 117.815 188.05 117.6 189.94 117.6ZM189.94 121.53C191.45 121.53 192.59 121.41 193.36 121.17C194.14 120.93 194.53 120.575 194.53 120.105C194.53 119.645 194.14 119.295 193.36 119.055C192.58 118.815 191.44 118.695 189.94 118.695C188.44 118.695 187.3 118.815 186.52 119.055C185.74 119.295 185.35 119.645 185.35 120.105C185.35 120.575 185.735 120.93 186.505 121.17C187.285 121.41 188.43 121.53 189.94 121.53ZM209.011 108.615V112.845H211.006V113.94H209.011V118.785H207.811V108.615H209.011ZM205.456 112.5C205.456 113.22 205.281 113.865 204.931 114.435C204.591 115.005 204.116 115.45 203.506 115.77C202.896 116.09 202.201 116.25 201.421 116.25C200.651 116.25 199.956 116.09 199.336 115.77C198.726 115.45 198.246 115.005 197.896 114.435C197.556 113.865 197.386 113.22 197.386 112.5C197.386 111.78 197.556 111.135 197.896 110.565C198.246 109.985 198.726 109.535 199.336 109.215C199.956 108.895 200.651 108.735 201.421 108.735C202.201 108.735 202.896 108.895 203.506 109.215C204.116 109.535 204.591 109.98 204.931 110.55C205.281 111.12 205.456 111.77 205.456 112.5ZM198.586 112.5C198.586 113.02 198.706 113.485 198.946 113.895C199.186 114.295 199.521 114.61 199.951 114.84C200.381 115.06 200.871 115.17 201.421 115.17C201.961 115.17 202.446 115.06 202.876 114.84C203.316 114.61 203.656 114.295 203.896 113.895C204.136 113.485 204.256 113.02 204.256 112.5C204.256 111.98 204.136 111.515 203.896 111.105C203.656 110.695 203.316 110.38 202.876 110.16C202.446 109.93 201.961 109.815 201.421 109.815C200.871 109.815 200.381 109.93 199.951 110.16C199.521 110.38 199.186 110.695 198.946 111.105C198.706 111.515 198.586 111.98 198.586 112.5ZM198.526 117.45H199.726V121.17H209.431V122.265H198.526V117.45ZM227.31 122.31H226.11V108.615H227.31V122.31ZM219.585 121.665C218.725 121.665 217.99 121.4 217.38 120.87C216.77 120.35 216.305 119.605 215.985 118.635C215.665 117.665 215.505 116.525 215.505 115.215C215.505 113.915 215.665 112.785 215.985 111.825C216.305 110.855 216.77 110.105 217.38 109.575C217.99 109.045 218.725 108.78 219.585 108.78C220.435 108.78 221.165 109.045 221.775 109.575C222.385 110.105 222.85 110.855 223.17 111.825C223.49 112.785 223.65 113.915 223.65 115.215C223.65 116.525 223.49 117.665 223.17 118.635C222.85 119.605 222.385 120.35 221.775 120.87C221.165 121.4 220.435 121.665 219.585 121.665ZM219.585 120.57C220.185 120.57 220.7 120.35 221.13 119.91C221.56 119.46 221.885 118.835 222.105 118.035C222.335 117.225 222.45 116.285 222.45 115.215C222.45 114.155 222.335 113.225 222.105 112.425C221.885 111.615 221.56 110.99 221.13 110.55C220.7 110.1 220.185 109.875 219.585 109.875C218.985 109.875 218.465 110.1 218.025 110.55C217.595 110.99 217.265 111.615 217.035 112.425C216.815 113.225 216.705 114.155 216.705 115.215C216.705 116.285 216.815 117.225 217.035 118.035C217.265 118.835 217.595 119.46 218.025 119.91C218.465 120.35 218.985 120.57 219.585 120.57ZM240.216 108.615H241.416V122.31H240.216V115.665H237.456C237.416 116.895 237.231 117.96 236.901 118.86C236.581 119.76 236.126 120.45 235.536 120.93C234.956 121.42 234.266 121.665 233.466 121.665C232.626 121.665 231.906 121.4 231.306 120.87C230.706 120.35 230.246 119.605 229.926 118.635C229.616 117.665 229.461 116.525 229.461 115.215C229.461 113.915 229.616 112.78 229.926 111.81C230.246 110.84 230.706 110.095 231.306 109.575C231.906 109.045 232.626 108.78 233.466 108.78C234.256 108.78 234.941 109.015 235.521 109.485C236.101 109.955 236.551 110.625 236.871 111.495C237.201 112.365 237.391 113.39 237.441 114.57H240.216V108.615ZM233.466 120.57C234.056 120.57 234.556 120.35 234.966 119.91C235.386 119.47 235.706 118.85 235.926 118.05C236.146 117.24 236.256 116.295 236.256 115.215C236.256 114.145 236.146 113.21 235.926 112.41C235.706 111.6 235.386 110.975 234.966 110.535C234.546 110.095 234.046 109.875 233.466 109.875C232.876 109.875 232.371 110.095 231.951 110.535C231.531 110.975 231.211 111.6 230.991 112.41C230.771 113.21 230.661 114.145 230.661 115.215C230.661 116.295 230.771 117.24 230.991 118.05C231.211 118.85 231.531 119.47 231.951 119.91C232.371 120.35 232.876 120.57 233.466 120.57ZM254.322 112.32V108.615H255.522V122.31H254.322V117.195H251.307V116.1H254.322V113.415H251.307V112.32H254.322ZM249.702 117.81C250.042 118.21 250.447 118.59 250.917 118.95C251.397 119.31 251.877 119.62 252.357 119.88V121.23C251.867 120.97 251.377 120.675 250.887 120.345C250.397 120.015 249.992 119.685 249.672 119.355C249.272 119.015 248.907 118.64 248.577 118.23C248.257 117.82 248.012 117.41 247.842 117C247.722 117.39 247.452 117.855 247.032 118.395C246.612 118.935 246.197 119.375 245.787 119.715C245.427 120.055 245.027 120.375 244.587 120.675C244.147 120.985 243.727 121.22 243.327 121.38V120.03C244.267 119.51 245.052 118.905 245.682 118.215C246.132 117.735 246.462 117.28 246.672 116.85C246.882 116.42 247.022 115.885 247.092 115.245C247.172 114.595 247.212 113.66 247.212 112.44V110.565H243.327V109.47H252.312V110.565H248.472V112.44C248.472 113.63 248.502 114.535 248.562 115.155C248.632 115.775 248.747 116.27 248.907 116.64C249.077 117.01 249.342 117.4 249.702 117.81ZM267.364 120.51H270.469V121.605H257.389V120.51H260.494V116.49C259.714 116.14 259.109 115.675 258.679 115.095C258.249 114.505 258.034 113.83 258.034 113.07C258.034 112.26 258.279 111.55 258.769 110.94C259.269 110.32 259.964 109.845 260.854 109.515C261.744 109.175 262.769 109.005 263.929 109.005C265.089 109.005 266.114 109.175 267.004 109.515C267.894 109.845 268.584 110.32 269.074 110.94C269.574 111.55 269.824 112.26 269.824 113.07C269.824 113.83 269.609 114.505 269.179 115.095C268.749 115.675 268.144 116.14 267.364 116.49V120.51ZM259.234 113.07C259.234 113.67 259.429 114.195 259.819 114.645C260.209 115.095 260.759 115.445 261.469 115.695C262.179 115.935 262.999 116.055 263.929 116.055C264.859 116.055 265.679 115.935 266.389 115.695C267.099 115.445 267.649 115.095 268.039 114.645C268.429 114.195 268.624 113.67 268.624 113.07C268.624 112.47 268.429 111.945 268.039 111.495C267.649 111.045 267.099 110.7 266.389 110.46C265.679 110.21 264.859 110.085 263.929 110.085C262.999 110.085 262.179 110.21 261.469 110.46C260.759 110.7 260.209 111.045 259.819 111.495C259.429 111.945 259.234 112.47 259.234 113.07ZM261.694 120.51H266.164V116.895C265.444 117.055 264.699 117.135 263.929 117.135C263.159 117.135 262.414 117.055 261.694 116.895V120.51ZM273.715 121.395H271.9V119.7H273.715V121.395ZM27.595 128.84H28.795V135.44H17.305V128.84H18.505V130.985H27.595V128.84ZM18.505 132.05V134.345H27.595V132.05H18.505ZM16.51 137.21H29.59V138.305H23.65V142.4H22.45V138.305H16.51V137.21ZM42.1214 131.855H44.1164V132.95H42.1214V136.16H40.9214V128.615H42.1214V131.855ZM32.2964 134.39L39.6614 134.255V135.32L31.0964 135.53V128.93H38.1464V130.025H32.2964V134.39ZM42.1214 142.445H31.6514V137.195H42.1214V142.445ZM40.9214 138.29H32.8514V141.35H40.9214V138.29ZM55.7629 132.62H52.7779C52.6979 133.22 52.4829 133.755 52.1329 134.225C51.7829 134.685 51.3229 135.045 50.7529 135.305C50.1929 135.555 49.5629 135.68 48.8629 135.68C48.1129 135.68 47.4379 135.53 46.8379 135.23C46.2379 134.93 45.7679 134.51 45.4279 133.97C45.0979 133.43 44.9329 132.82 44.9329 132.14C44.9329 131.46 45.0979 130.855 45.4279 130.325C45.7679 129.785 46.2379 129.365 46.8379 129.065C47.4379 128.765 48.1129 128.615 48.8629 128.615C49.8929 128.615 50.7629 128.885 51.4729 129.425C52.1829 129.955 52.6129 130.655 52.7629 131.525H55.7629V128.615H56.9629V136.205H55.7629V132.62ZM48.8629 134.6C49.3929 134.6 49.8629 134.495 50.2729 134.285C50.6929 134.075 51.0179 133.785 51.2479 133.415C51.4879 133.045 51.6079 132.62 51.6079 132.14C51.6079 131.42 51.3529 130.835 50.8429 130.385C50.3329 129.925 49.6729 129.695 48.8629 129.695C48.0629 129.695 47.4079 129.92 46.8979 130.37C46.3879 130.82 46.1329 131.41 46.1329 132.14C46.1329 132.62 46.2479 133.045 46.4779 133.415C46.7079 133.785 47.0279 134.075 47.4379 134.285C47.8579 134.495 48.3329 134.6 48.8629 134.6ZM47.3329 138.725H50.2729V136.955H51.4729V142.46H46.1329V136.955H47.3329V138.725ZM56.2879 139.955C56.6379 140.365 57.0829 140.715 57.6229 141.005V142.415C57.0929 142.165 56.4979 141.725 55.8379 141.095C55.4079 140.665 55.1029 140.24 54.9229 139.82C54.7629 140.21 54.4479 140.645 53.9779 141.125C53.4479 141.695 52.8579 142.155 52.2079 142.505V141.035C52.7479 140.715 53.2029 140.33 53.5729 139.88C53.8429 139.56 54.0329 139.25 54.1429 138.95C54.2529 138.64 54.3079 138.26 54.3079 137.81V136.955H55.5079V137.81C55.5079 138.26 55.5679 138.65 55.6879 138.98C55.8179 139.31 56.0179 139.635 56.2879 139.955ZM47.3329 141.395H50.2729V139.745H47.3329V141.395ZM71.0693 142.31H69.8693V128.615H71.0693V142.31ZM63.3443 141.665C62.4843 141.665 61.7493 141.4 61.1393 140.87C60.5293 140.35 60.0643 139.605 59.7443 138.635C59.4243 137.665 59.2643 136.525 59.2643 135.215C59.2643 133.915 59.4243 132.785 59.7443 131.825C60.0643 130.855 60.5293 130.105 61.1393 129.575C61.7493 129.045 62.4843 128.78 63.3443 128.78C64.1943 128.78 64.9243 129.045 65.5343 129.575C66.1443 130.105 66.6093 130.855 66.9293 131.825C67.2493 132.785 67.4093 133.915 67.4093 135.215C67.4093 136.525 67.2493 137.665 66.9293 138.635C66.6093 139.605 66.1443 140.35 65.5343 140.87C64.9243 141.4 64.1943 141.665 63.3443 141.665ZM63.3443 140.57C63.9443 140.57 64.4593 140.35 64.8893 139.91C65.3193 139.46 65.6443 138.835 65.8643 138.035C66.0943 137.225 66.2093 136.285 66.2093 135.215C66.2093 134.155 66.0943 133.225 65.8643 132.425C65.6443 131.615 65.3193 130.99 64.8893 130.55C64.4593 130.1 63.9443 129.875 63.3443 129.875C62.7443 129.875 62.2243 130.1 61.7843 130.55C61.3543 130.99 61.0243 131.615 60.7943 132.425C60.5743 133.225 60.4643 134.155 60.4643 135.215C60.4643 136.285 60.5743 137.225 60.7943 138.035C61.0243 138.835 61.3543 139.46 61.7843 139.91C62.2243 140.35 62.7443 140.57 63.3443 140.57ZM88.6328 142.31H87.4328V128.615H88.6328V142.31ZM76.7528 139.835C77.6728 139.305 78.4478 138.69 79.0778 137.99C79.5278 137.48 79.8578 137.01 80.0678 136.58C80.2778 136.14 80.4228 135.595 80.5028 134.945C80.5828 134.285 80.6228 133.35 80.6228 132.14V129.2H81.8228V132.14C81.8228 133.33 81.8578 134.24 81.9278 134.87C81.9978 135.49 82.1128 135.99 82.2728 136.37C82.4428 136.74 82.7078 137.14 83.0678 137.57C83.3978 137.99 83.7928 138.385 84.2528 138.755C84.7228 139.115 85.1978 139.42 85.6778 139.67V141.08C84.5178 140.43 83.6278 139.795 83.0078 139.175C82.6078 138.805 82.2478 138.415 81.9278 138.005C81.6178 137.585 81.3828 137.185 81.2228 136.805C81.0928 137.185 80.8228 137.65 80.4128 138.2C80.0028 138.74 79.5978 139.18 79.1978 139.52C78.8378 139.87 78.4378 140.2 77.9978 140.51C77.5678 140.83 77.1528 141.075 76.7528 141.245V139.835ZM102.004 128.615V131.93H103.999V133.025H102.004V136.28H100.804V128.615H102.004ZM94.8943 132.815C94.7443 133.125 94.4843 133.46 94.1143 133.82C93.7443 134.17 93.3443 134.495 92.9143 134.795C92.5143 135.065 92.0943 135.315 91.6543 135.545C91.2243 135.775 90.8393 135.95 90.4993 136.07V134.81C91.3793 134.47 92.1643 134.015 92.8543 133.445C93.4143 132.985 93.7893 132.55 93.9793 132.14C94.1693 131.73 94.2643 131.2 94.2643 130.55V130.295H90.5893V129.2H99.0943V130.295H95.5243V130.55C95.5243 131.18 95.6093 131.7 95.7793 132.11C95.9593 132.52 96.3143 132.935 96.8443 133.355C97.5043 133.845 98.3093 134.28 99.2593 134.66V135.875C98.3893 135.555 97.5893 135.165 96.8593 134.705C95.9193 134.095 95.2643 133.465 94.8943 132.815ZM100.819 138.41H91.0993V137.315H102.094L101.974 142.505H100.819V138.41ZM108.281 128.57H109.511V131.33H113.456V132.44H104.306V131.33H108.281V128.57ZM116.111 134.315H118.181V135.41H116.111V142.31H114.911V128.615H116.111V134.315ZM108.926 133.73C109.716 133.73 110.421 133.9 111.041 134.24C111.661 134.58 112.146 135.045 112.496 135.635C112.846 136.215 113.021 136.865 113.021 137.585C113.021 138.305 112.846 138.96 112.496 139.55C112.146 140.14 111.661 140.605 111.041 140.945C110.421 141.285 109.716 141.455 108.926 141.455C108.146 141.455 107.441 141.285 106.811 140.945C106.191 140.605 105.706 140.14 105.356 139.55C105.006 138.96 104.831 138.305 104.831 137.585C104.831 136.865 105.006 136.215 105.356 135.635C105.706 135.045 106.191 134.58 106.811 134.24C107.441 133.9 108.146 133.73 108.926 133.73ZM108.926 140.375C109.486 140.375 109.986 140.255 110.426 140.015C110.866 139.785 111.206 139.46 111.446 139.04C111.696 138.61 111.821 138.125 111.821 137.585C111.821 137.055 111.696 136.58 111.446 136.16C111.196 135.74 110.851 135.41 110.411 135.17C109.971 134.93 109.476 134.81 108.926 134.81C108.376 134.81 107.881 134.93 107.441 135.17C107.001 135.41 106.656 135.74 106.406 136.16C106.156 136.58 106.031 137.055 106.031 137.585C106.031 138.125 106.156 138.605 106.406 139.025C106.656 139.445 107.001 139.775 107.441 140.015C107.881 140.255 108.376 140.375 108.926 140.375ZM130.727 137.99H129.527V130.565H119.432V129.47H130.727V137.99ZM125.252 134.48V140.39H131.792V141.485H118.712V140.39H124.052V134.48H125.252ZM147.916 134.315V128.615H149.116V142.31H147.916V135.41H145.261V142.25H144.061V128.645H145.261V134.315H147.916ZM142.276 130.445H137.716V140L142.936 139.91V140.975L136.516 141.155V129.35H142.276V130.445ZM155.775 130.055H159.585V131.15H150.705V130.055H154.515V128.315H155.775V130.055ZM162.18 134.315H164.325V135.41H162.18V142.31H160.98V128.615H162.18V134.315ZM155.745 139.94H160.095V141.035H150.42V139.94H154.545V138.02C153.625 137.92 152.875 137.605 152.295 137.075C151.715 136.545 151.425 135.89 151.425 135.11C151.425 134.54 151.585 134.035 151.905 133.595C152.235 133.145 152.68 132.8 153.24 132.56C153.8 132.31 154.425 132.185 155.115 132.185C155.815 132.185 156.445 132.31 157.005 132.56C157.575 132.8 158.02 133.145 158.34 133.595C158.67 134.035 158.835 134.54 158.835 135.11C158.835 135.88 158.545 136.53 157.965 137.06C157.395 137.59 156.655 137.91 155.745 138.02V139.94ZM152.64 135.11C152.64 135.68 152.865 136.14 153.315 136.49C153.765 136.83 154.365 137 155.115 137C155.875 137 156.48 136.83 156.93 136.49C157.39 136.14 157.62 135.68 157.62 135.11C157.62 134.54 157.39 134.085 156.93 133.745C156.48 133.405 155.875 133.235 155.115 133.235C154.355 133.235 153.75 133.405 153.3 133.745C152.86 134.085 152.64 134.54 152.64 135.11ZM176.571 142.31V128.615H177.771V142.31H176.571ZM173.541 134.495V128.645H174.741V142.25H173.541V135.59H171.411C171.361 137.47 171.046 138.925 170.466 139.955C169.896 140.985 169.101 141.5 168.081 141.5C167.021 141.5 166.201 140.945 165.621 139.835C165.041 138.715 164.751 137.15 164.751 135.14C164.751 133.83 164.881 132.7 165.141 131.75C165.401 130.79 165.781 130.055 166.281 129.545C166.781 129.035 167.381 128.78 168.081 128.78C169.081 128.78 169.866 129.285 170.436 130.295C171.016 131.305 171.336 132.705 171.396 134.495H173.541ZM168.081 140.405C168.761 140.405 169.286 139.945 169.656 139.025C170.026 138.095 170.211 136.8 170.211 135.14C170.211 133.5 170.026 132.215 169.656 131.285C169.286 130.345 168.761 129.875 168.081 129.875C167.401 129.875 166.876 130.345 166.506 131.285C166.136 132.215 165.951 133.5 165.951 135.14C165.951 136.8 166.136 138.095 166.506 139.025C166.876 139.945 167.401 140.405 168.081 140.405ZM189.924 133.205V134.66H195.864V135.74H182.784V134.66H188.724V133.205H183.834V128.825H194.814V133.205H189.924ZM193.614 129.92H185.034V132.11H193.614V129.92ZM194.889 140.24H184.959V141.455H195.114V142.535H183.759V139.205H193.689V138.05H183.759V136.97H194.889V140.24ZM201.256 135.68C200.486 135.68 199.796 135.53 199.186 135.23C198.586 134.93 198.111 134.51 197.761 133.97C197.421 133.43 197.251 132.82 197.251 132.14C197.251 131.46 197.421 130.855 197.761 130.325C198.111 129.785 198.586 129.365 199.186 129.065C199.796 128.765 200.486 128.615 201.256 128.615C202.036 128.615 202.731 128.765 203.341 129.065C203.951 129.365 204.426 129.785 204.766 130.325C205.106 130.855 205.276 131.46 205.276 132.14C205.276 132.82 205.106 133.43 204.766 133.97C204.426 134.51 203.951 134.93 203.341 135.23C202.731 135.53 202.036 135.68 201.256 135.68ZM209.131 135.845H207.931V128.615H209.131V135.845ZM201.256 134.6C201.796 134.6 202.281 134.495 202.711 134.285C203.141 134.075 203.476 133.785 203.716 133.415C203.956 133.045 204.076 132.62 204.076 132.14C204.076 131.66 203.956 131.235 203.716 130.865C203.476 130.495 203.141 130.21 202.711 130.01C202.291 129.8 201.806 129.695 201.256 129.695C200.716 129.695 200.231 129.8 199.801 130.01C199.371 130.21 199.036 130.495 198.796 130.865C198.566 131.235 198.451 131.66 198.451 132.14C198.451 132.62 198.571 133.045 198.811 133.415C199.051 133.785 199.381 134.075 199.801 134.285C200.231 134.495 200.716 134.6 201.256 134.6ZM209.131 142.445H198.391V136.745H199.591V138.44H207.931V136.745H209.131V142.445ZM199.591 139.49V141.35H207.931V139.49H199.591ZM222.637 134.315V128.615H223.837V142.31H222.637V135.41H220.357V142.25H219.157V128.645H220.357V134.315H222.637ZM213.877 128.69H215.107V131.39H218.272V132.485H210.652V131.39H213.877V128.69ZM214.522 133.835C215.192 133.835 215.787 134 216.307 134.33C216.837 134.65 217.247 135.095 217.537 135.665C217.827 136.235 217.972 136.875 217.972 137.585C217.972 138.305 217.827 138.95 217.537 139.52C217.247 140.09 216.837 140.535 216.307 140.855C215.787 141.185 215.192 141.35 214.522 141.35C213.852 141.35 213.252 141.185 212.722 140.855C212.202 140.535 211.797 140.09 211.507 139.52C211.217 138.95 211.072 138.305 211.072 137.585C211.072 136.875 211.217 136.235 211.507 135.665C211.797 135.095 212.202 134.65 212.722 134.33C213.252 134 213.852 133.835 214.522 133.835ZM214.522 140.27C215.192 140.27 215.732 140.025 216.142 139.535C216.562 139.035 216.772 138.385 216.772 137.585C216.772 136.795 216.562 136.155 216.142 135.665C215.722 135.165 215.182 134.915 214.522 134.915C213.862 134.915 213.322 135.165 212.902 135.665C212.482 136.155 212.272 136.795 212.272 137.585C212.272 138.385 212.477 139.035 212.887 139.535C213.307 140.025 213.852 140.27 214.522 140.27ZM232.537 136.955V140.51H238.477V141.605H225.397V140.51H231.337V136.955H226.192V129.14H227.392V131.9H236.482V129.14H237.682V136.955H232.537ZM236.482 132.965H227.392V135.86H236.482V132.965ZM251.143 142.31V128.615H252.343V142.31H251.143ZM245.353 133.64H248.038V128.645H249.238V142.25H248.038V134.735H245.353V133.64ZM244.648 137.6C244.908 137.99 245.228 138.355 245.608 138.695C245.988 139.035 246.378 139.33 246.778 139.58V141.005C245.698 140.305 244.918 139.675 244.438 139.115C243.758 138.385 243.273 137.655 242.983 136.925C242.863 137.275 242.643 137.69 242.323 138.17C242.003 138.64 241.688 139.03 241.378 139.34C240.628 140.18 239.893 140.79 239.173 141.17V139.745C239.993 139.195 240.653 138.57 241.153 137.87C241.503 137.4 241.758 136.96 241.918 136.55C242.088 136.13 242.208 135.6 242.278 134.96C242.348 134.32 242.383 133.415 242.383 132.245V129.2H243.583V132.245C243.583 133.385 243.613 134.27 243.673 134.9C243.743 135.53 243.848 136.03 243.988 136.4C244.138 136.77 244.358 137.17 244.648 137.6ZM263.878 140.51H266.983V141.605H253.903V140.51H257.008V136.49C256.228 136.14 255.623 135.675 255.193 135.095C254.763 134.505 254.548 133.83 254.548 133.07C254.548 132.26 254.793 131.55 255.283 130.94C255.783 130.32 256.478 129.845 257.368 129.515C258.258 129.175 259.283 129.005 260.443 129.005C261.603 129.005 262.628 129.175 263.518 129.515C264.408 129.845 265.098 130.32 265.588 130.94C266.088 131.55 266.338 132.26 266.338 133.07C266.338 133.83 266.123 134.505 265.693 135.095C265.263 135.675 264.658 136.14 263.878 136.49V140.51ZM255.748 133.07C255.748 133.67 255.943 134.195 256.333 134.645C256.723 135.095 257.273 135.445 257.983 135.695C258.693 135.935 259.513 136.055 260.443 136.055C261.373 136.055 262.193 135.935 262.903 135.695C263.613 135.445 264.163 135.095 264.553 134.645C264.943 134.195 265.138 133.67 265.138 133.07C265.138 132.47 264.943 131.945 264.553 131.495C264.163 131.045 263.613 130.7 262.903 130.46C262.193 130.21 261.373 130.085 260.443 130.085C259.513 130.085 258.693 130.21 257.983 130.46C257.273 130.7 256.723 131.045 256.333 131.495C255.943 131.945 255.748 132.47 255.748 133.07ZM258.208 140.51H262.678V136.895C261.958 137.055 261.213 137.135 260.443 137.135C259.673 137.135 258.928 137.055 258.208 136.895V140.51ZM270.229 141.395H268.414V139.7H270.229V141.395Z" fill="#2F2D2B"/>
<path d="M206.462 437.321C200.01 416.299 217.596 382.123 217.596 382.123L321.664 403.115L321.309 404.873C321.309 404.873 324.037 441.857 310.529 458.313C297.096 474.678 260.906 479.403 260.906 479.403C260.906 479.403 292.542 497.756 298.473 518.081C304.32 538.115 287.907 570.466 287.907 570.466L183.839 549.475C183.839 549.475 181.25 513.29 194.406 497.089C207.753 480.653 244.381 476.07 244.381 476.07C244.381 476.07 212.674 457.562 206.462 437.321Z" fill="white" stroke="#2F2D2B" stroke-width="2" stroke-linejoin="round"/>
<rect x="200.551" y="356" width="149.203" height="25.8235" transform="rotate(11.4043 200.551 356)" fill="#2F2D2B"/>
<path d="M305.923 442.382L304.651 442.126L305.923 442.383L305.91 442.448C305.902 442.485 305.89 442.538 305.874 442.606C305.843 442.742 305.797 442.937 305.733 443.185C305.604 443.68 305.405 444.384 305.12 445.241C304.549 446.953 303.63 449.286 302.228 451.774C299.428 456.74 294.646 462.427 286.802 464.918C278.576 467.529 263.326 470.667 256.782 471.967L252.596 492.717C253.263 493.101 254.046 493.557 254.92 494.084C257.836 495.841 261.788 498.362 265.932 501.416C270.072 504.467 274.425 508.068 278.129 511.988C281.822 515.898 284.934 520.194 286.501 524.644C289.594 533.427 287.281 544.573 284.363 553.295C282.889 557.699 281.231 561.57 279.942 564.34C279.297 565.725 278.744 566.838 278.351 567.606C278.154 567.99 277.997 568.288 277.888 568.491C277.834 568.592 277.792 568.671 277.764 568.724C277.749 568.75 277.738 568.772 277.73 568.786C277.727 568.793 277.723 568.798 277.721 568.802C277.72 568.804 277.72 568.806 277.719 568.807L277.718 568.808L277.257 569.643L193.982 552.845L193.881 551.897L193.88 551.895C193.88 551.894 193.881 551.892 193.88 551.89C193.88 551.886 193.879 551.88 193.878 551.872C193.876 551.856 193.874 551.832 193.871 551.802C193.865 551.741 193.857 551.653 193.847 551.539C193.826 551.309 193.796 550.974 193.763 550.544C193.698 549.683 193.62 548.443 193.563 546.916C193.448 543.864 193.42 539.652 193.769 535.022C194.46 525.849 196.65 514.678 202.905 507.781C206.074 504.287 210.61 501.534 215.529 499.361C220.463 497.183 225.871 495.551 230.87 494.343C235.873 493.134 240.495 492.343 243.863 491.854C245.227 491.656 246.388 491.509 247.287 491.403L251.337 471.324C246.508 468.077 232.42 458.492 225.429 452.538C219.164 447.201 216.96 440.105 216.305 434.442C215.977 431.605 216.034 429.098 216.172 427.299C216.241 426.399 216.33 425.672 216.404 425.166C216.441 424.913 216.474 424.715 216.498 424.577C216.51 424.509 216.519 424.455 216.526 424.418L216.539 424.353C216.543 424.354 216.612 424.367 217.811 424.609L216.539 424.352L216.796 423.08L306.18 441.11L305.923 442.382Z" fill="#C37855"/>
<path d="M305.923 442.382L305.726 443.363L306.706 443.56L306.904 442.58L305.923 442.382ZM304.651 442.126L304.849 441.146L304.453 443.106L304.651 442.126ZM305.923 442.383L306.903 442.581L307.101 441.602L306.122 441.403L305.923 442.383ZM305.91 442.448L306.888 442.658L306.89 442.645L305.91 442.448ZM305.874 442.606L306.849 442.829L306.849 442.829L305.874 442.606ZM305.733 443.185L306.7 443.436L306.7 443.436L305.733 443.185ZM305.12 445.241L306.068 445.557L306.068 445.557L305.12 445.241ZM302.228 451.774L303.099 452.265L303.099 452.265L302.228 451.774ZM286.802 464.918L287.104 465.871L287.104 465.871L286.802 464.918ZM256.782 471.967L256.587 470.986L255.934 471.116L255.802 471.769L256.782 471.967ZM252.596 492.717L251.616 492.519L251.474 493.224L252.097 493.583L252.596 492.717ZM254.92 494.084L255.436 493.227L255.436 493.227L254.92 494.084ZM265.932 501.416L266.525 500.611L266.525 500.611L265.932 501.416ZM278.129 511.988L278.856 511.302L278.856 511.302L278.129 511.988ZM286.501 524.644L287.444 524.312L287.444 524.312L286.501 524.644ZM284.363 553.295L285.311 553.613L285.311 553.613L284.363 553.295ZM279.942 564.34L280.849 564.761L280.849 564.761L279.942 564.34ZM278.351 567.606L279.241 568.062L279.241 568.062L278.351 567.606ZM277.888 568.491L278.771 568.961L278.771 568.961L277.888 568.491ZM277.764 568.724L276.885 568.247L276.885 568.247L277.764 568.724ZM277.73 568.786L278.607 569.267L278.608 569.266L277.73 568.786ZM277.721 568.802L276.844 568.321L276.837 568.333L276.831 568.347L277.721 568.802ZM277.719 568.807L278.507 569.422L278.557 569.359L278.595 569.289L277.719 568.807ZM277.718 568.808L276.929 568.193L276.88 568.256L276.842 568.325L277.718 568.808ZM277.257 569.643L277.06 570.623L277.779 570.768L278.133 570.126L277.257 569.643ZM193.982 552.845L192.987 552.951L193.065 553.68L193.784 553.825L193.982 552.845ZM193.881 551.897L194.875 551.792L194.867 551.713L194.846 551.636L193.881 551.897ZM193.88 551.895L192.886 552L192.894 552.079L192.915 552.157L193.88 551.895ZM193.88 551.89L194.877 551.805L194.876 551.795L194.875 551.786L193.88 551.89ZM193.878 551.872L192.883 551.974L192.883 551.975L193.878 551.872ZM193.871 551.802L194.866 551.703L194.866 551.703L193.871 551.802ZM193.847 551.539L192.851 551.63L192.851 551.63L193.847 551.539ZM193.763 550.544L192.766 550.619L192.766 550.619L193.763 550.544ZM193.563 546.916L192.563 546.953L192.563 546.953L193.563 546.916ZM193.769 535.022L192.772 534.946L192.772 534.946L193.769 535.022ZM202.905 507.781L202.165 507.11L202.164 507.11L202.905 507.781ZM215.529 499.361L215.125 498.447L215.125 498.447L215.529 499.361ZM230.87 494.343L230.635 493.371L230.635 493.371L230.87 494.343ZM243.863 491.854L243.72 490.864L243.72 490.864L243.863 491.854ZM247.287 491.403L247.405 492.396L248.124 492.31L248.267 491.6L247.287 491.403ZM251.337 471.324L252.317 471.522L252.449 470.867L251.895 470.495L251.337 471.324ZM225.429 452.538L224.781 453.299L224.781 453.299L225.429 452.538ZM216.305 434.442L215.312 434.557L215.312 434.557L216.305 434.442ZM216.172 427.299L215.175 427.222L215.175 427.222L216.172 427.299ZM216.404 425.166L215.414 425.022L215.414 425.022L216.404 425.166ZM216.498 424.577L215.513 424.405L215.513 424.405L216.498 424.577ZM216.526 424.418L215.546 424.22L215.543 424.232L216.526 424.418ZM216.539 424.353L216.592 423.355L215.729 423.309L215.559 424.156L216.539 424.353ZM217.811 424.609L217.614 425.589L218.009 423.629L217.811 424.609ZM216.539 424.352L215.559 424.155L215.361 425.135L216.341 425.333L216.539 424.352ZM216.796 423.08L216.993 422.1L216.013 421.902L215.815 422.882L216.796 423.08ZM306.18 441.11L307.16 441.308L307.358 440.328L306.378 440.13L306.18 441.11ZM305.923 442.382L306.121 441.402L304.849 441.146L304.651 442.126L304.453 443.106L305.726 443.363L305.923 442.382ZM304.651 442.126L304.453 443.106L305.725 443.364L305.923 442.383L306.122 441.403L304.85 441.146L304.651 442.126ZM305.923 442.383L304.943 442.186L304.93 442.25L305.91 442.448L306.89 442.645L306.903 442.581L305.923 442.383ZM305.91 442.448L304.933 442.237C304.926 442.266 304.917 442.308 304.899 442.383L305.874 442.606L306.849 442.829C306.863 442.768 306.878 442.704 306.888 442.658L305.91 442.448ZM305.874 442.606L304.899 442.382C304.87 442.511 304.826 442.697 304.765 442.934L305.733 443.185L306.7 443.436C306.768 443.178 306.816 442.972 306.849 442.829L305.874 442.606ZM305.733 443.185L304.765 442.934C304.641 443.409 304.448 444.091 304.171 444.925L305.12 445.241L306.068 445.557C306.361 444.677 306.567 443.951 306.7 443.436L305.733 443.185ZM305.12 445.241L304.171 444.925C303.616 446.591 302.72 448.863 301.357 451.283L302.228 451.774L303.099 452.265C304.54 449.708 305.483 447.314 306.068 445.557L305.12 445.241ZM302.228 451.774L301.357 451.283C298.63 456.121 294.018 461.577 286.499 463.964L286.802 464.918L287.104 465.871C295.274 463.277 300.227 457.36 303.099 452.265L302.228 451.774ZM286.802 464.918L286.499 463.964C278.337 466.556 263.145 469.683 256.587 470.986L256.782 471.967L256.977 472.947C263.507 471.651 278.815 468.502 287.104 465.871L286.802 464.918ZM256.782 471.967L255.802 471.769L251.616 492.519L252.596 492.717L253.577 492.914L257.762 472.164L256.782 471.967ZM252.596 492.717L252.097 493.583C252.76 493.965 253.537 494.418 254.404 494.94L254.92 494.084L255.436 493.227C254.555 492.696 253.766 492.236 253.096 491.85L252.596 492.717ZM254.92 494.084L254.404 494.94C257.301 496.686 261.226 499.19 265.338 502.221L265.932 501.416L266.525 500.611C262.35 497.534 258.37 494.995 255.436 493.227L254.92 494.084ZM265.932 501.416L265.338 502.221C269.45 505.251 273.753 508.812 277.402 512.675L278.129 511.988L278.856 511.302C275.098 507.323 270.694 503.684 266.525 500.611L265.932 501.416ZM278.129 511.988L277.402 512.675C281.048 516.535 284.056 520.713 285.558 524.976L286.501 524.644L287.444 524.312C285.811 519.676 282.595 515.26 278.856 511.302L278.129 511.988ZM286.501 524.644L285.558 524.976C288.53 533.418 286.325 544.28 283.414 552.978L284.363 553.295L285.311 553.613C288.238 544.865 290.657 533.435 287.444 524.312L286.501 524.644ZM284.363 553.295L283.414 552.978C281.956 557.337 280.313 561.172 279.035 563.918L279.942 564.34L280.849 564.761C282.149 561.968 283.822 558.061 285.311 553.613L284.363 553.295ZM279.942 564.34L279.035 563.918C278.397 565.291 277.849 566.392 277.461 567.15L278.351 567.606L279.241 568.062C279.639 567.284 280.198 566.159 280.849 564.761L279.942 564.34ZM278.351 567.606L277.461 567.15C277.267 567.528 277.112 567.821 277.006 568.021L277.888 568.491L278.771 568.961C278.881 568.755 279.041 568.452 279.241 568.062L278.351 567.606ZM277.888 568.491L277.006 568.021C276.951 568.123 276.911 568.198 276.885 568.247L277.764 568.724L278.643 569.201C278.674 569.144 278.717 569.062 278.771 568.961L277.888 568.491ZM277.764 568.724L276.885 568.247C276.861 568.291 276.862 568.289 276.853 568.306L277.73 568.786L278.608 569.266C278.614 569.255 278.621 569.242 278.625 569.233C278.631 569.222 278.637 569.212 278.643 569.201L277.764 568.724ZM277.73 568.786L276.854 568.305C276.859 568.296 276.863 568.289 276.862 568.29C276.862 568.29 276.862 568.29 276.862 568.29C276.862 568.291 276.861 568.291 276.861 568.291C276.86 568.292 276.859 568.294 276.858 568.296C276.857 568.298 276.855 568.302 276.853 568.305C276.851 568.309 276.848 568.314 276.844 568.321L277.721 568.802L278.598 569.283C278.595 569.289 278.592 569.293 278.591 569.296C278.589 569.298 278.588 569.3 278.587 569.301C278.587 569.302 278.586 569.303 278.587 569.303C278.587 569.302 278.587 569.302 278.587 569.302C278.587 569.301 278.588 569.301 278.588 569.3C278.591 569.296 278.598 569.283 278.607 569.267L277.73 568.786ZM277.721 568.802L276.831 568.347C276.814 568.379 276.803 568.406 276.796 568.423C276.792 568.432 276.789 568.439 276.787 568.444C276.785 568.449 276.784 568.453 276.783 568.454C276.783 568.455 276.783 568.455 276.783 568.455C276.783 568.455 276.783 568.455 276.783 568.455C276.783 568.454 276.784 568.453 276.784 568.452C276.785 568.449 276.788 568.442 276.791 568.433C276.795 568.425 276.801 568.411 276.808 568.394C276.812 568.385 276.817 568.375 276.822 568.364C276.828 568.352 276.835 568.339 276.843 568.325L277.719 568.807L278.595 569.289C278.611 569.26 278.623 569.235 278.63 569.218C278.638 569.201 278.644 569.187 278.648 569.178C278.651 569.169 278.654 569.162 278.655 569.159C278.656 569.156 278.657 569.152 278.657 569.155C278.656 569.155 278.655 569.159 278.653 569.163C278.651 569.168 278.649 569.175 278.645 569.184C278.638 569.2 278.627 569.226 278.611 569.257L277.721 568.802ZM277.719 568.807L276.931 568.191L276.929 568.193L277.718 568.808L278.506 569.424L278.507 569.422L277.719 568.807ZM277.718 568.808L276.842 568.325L276.382 569.16L277.257 569.643L278.133 570.126L278.593 569.291L277.718 568.808ZM277.257 569.643L277.455 568.663L194.179 551.865L193.982 552.845L193.784 553.825L277.06 570.623L277.257 569.643ZM193.982 552.845L194.976 552.739L194.875 551.792L193.881 551.897L192.886 552.003L192.987 552.951L193.982 552.845ZM193.881 551.897L194.846 551.636L194.846 551.634L193.88 551.895L192.915 552.157L192.916 552.159L193.881 551.897ZM193.88 551.895L194.875 551.79C194.877 551.807 194.878 551.823 194.879 551.836C194.879 551.849 194.88 551.861 194.88 551.871C194.88 551.89 194.88 551.906 194.88 551.916C194.88 551.926 194.88 551.933 194.879 551.936C194.879 551.938 194.879 551.939 194.879 551.939C194.879 551.94 194.879 551.939 194.879 551.938C194.879 551.936 194.88 551.931 194.88 551.925C194.88 551.918 194.88 551.908 194.88 551.897C194.88 551.875 194.88 551.843 194.877 551.805L193.88 551.89L192.884 551.976C192.881 551.938 192.88 551.907 192.88 551.886C192.88 551.875 192.881 551.866 192.881 551.86C192.881 551.854 192.881 551.849 192.881 551.848C192.881 551.847 192.881 551.846 192.881 551.847C192.881 551.848 192.881 551.849 192.881 551.851C192.881 551.854 192.881 551.862 192.881 551.873C192.88 551.883 192.88 551.899 192.881 551.919C192.881 551.939 192.882 551.966 192.886 552L193.88 551.895ZM193.88 551.89L194.875 551.786C194.874 551.779 194.873 551.773 194.873 551.769C194.872 551.764 194.872 551.761 194.872 551.758C194.871 551.756 194.871 551.754 194.871 551.753C194.871 551.751 194.871 551.751 194.871 551.751C194.871 551.75 194.872 551.758 194.873 551.769L193.878 551.872L192.883 551.975C192.885 551.993 192.887 552.008 192.888 552.014C192.888 552.015 192.888 552.015 192.888 552.016C192.888 552.016 192.888 552.016 192.888 552.016C192.888 552.017 192.888 552.016 192.888 552.015C192.888 552.014 192.888 552.011 192.887 552.008C192.887 552.005 192.886 552 192.886 551.994L193.88 551.89ZM193.878 551.872L194.873 551.77C194.871 551.75 194.871 551.753 194.866 551.703L193.871 551.802L192.876 551.9C192.877 551.913 192.879 551.925 192.88 551.937C192.881 551.947 192.882 551.961 192.883 551.974L193.878 551.872ZM193.871 551.802L194.866 551.703C194.861 551.647 194.853 551.562 194.842 551.447L193.847 551.539L192.851 551.63C192.861 551.744 192.87 551.836 192.876 551.9L193.871 551.802ZM193.847 551.539L194.842 551.447C194.822 551.222 194.793 550.891 194.761 550.468L193.763 550.544L192.766 550.619C192.799 551.056 192.829 551.397 192.851 551.63L193.847 551.539ZM193.763 550.544L194.761 550.468C194.696 549.619 194.619 548.392 194.562 546.878L193.563 546.916L192.563 546.953C192.621 548.494 192.7 549.747 192.766 550.619L193.763 550.544ZM193.563 546.916L194.562 546.878C194.449 543.852 194.421 539.68 194.766 535.097L193.769 535.022L192.772 534.946C192.42 539.624 192.448 543.875 192.563 546.953L193.563 546.916ZM193.769 535.022L194.766 535.097C195.456 525.95 197.633 515.083 203.646 508.453L202.905 507.781L202.164 507.11C195.666 514.274 193.465 525.749 192.772 534.946L193.769 535.022ZM202.905 507.781L203.646 508.453C206.682 505.106 211.076 502.421 215.933 500.276L215.529 499.361L215.125 498.447C210.144 500.646 205.466 503.469 202.165 507.11L202.905 507.781ZM215.529 499.361L215.933 500.276C220.794 498.13 226.141 496.515 231.105 495.315L230.87 494.343L230.635 493.371C225.602 494.588 220.131 496.236 215.125 498.447L215.529 499.361ZM230.87 494.343L231.105 495.315C236.07 494.116 240.66 493.329 244.007 492.843L243.863 491.854L243.72 490.864C240.329 491.356 235.676 492.153 230.635 493.371L230.87 494.343ZM243.863 491.854L244.007 492.843C245.36 492.647 246.512 492.502 247.405 492.396L247.287 491.403L247.169 490.41C246.263 490.517 245.094 490.665 243.72 490.864L243.863 491.854ZM247.287 491.403L248.267 491.6L252.317 471.522L251.337 471.324L250.356 471.127L246.306 491.205L247.287 491.403ZM251.337 471.324L251.895 470.495C247.052 467.238 233.016 457.686 226.078 451.777L225.429 452.538L224.781 453.299C231.823 459.297 245.964 468.916 250.779 472.154L251.337 471.324ZM225.429 452.538L226.078 451.777C220.072 446.661 217.936 439.844 217.298 434.327L216.305 434.442L215.312 434.557C215.984 440.367 218.255 447.741 224.781 453.299L225.429 452.538ZM216.305 434.442L217.298 434.327C216.979 431.568 217.035 429.127 217.169 427.375L216.172 427.299L215.175 427.222C215.033 429.069 214.975 431.642 215.312 434.557L216.305 434.442ZM216.172 427.299L217.169 427.375C217.236 426.5 217.323 425.795 217.393 425.31L216.404 425.166L215.414 425.022C215.338 425.548 215.246 426.298 215.175 427.222L216.172 427.299ZM216.404 425.166L217.393 425.31C217.429 425.068 217.46 424.879 217.483 424.749L216.498 424.577L215.513 424.405C215.487 424.55 215.453 424.758 215.414 425.022L216.404 425.166ZM216.498 424.577L217.483 424.749C217.496 424.674 217.503 424.632 217.509 424.603L216.526 424.418L215.543 424.232C215.534 424.279 215.523 424.344 215.513 424.405L216.498 424.577ZM216.526 424.418L217.506 424.615L217.519 424.551L216.539 424.353L215.559 424.156L215.546 424.22L216.526 424.418ZM216.539 424.353L216.486 425.352C216.444 425.35 216.411 425.345 216.403 425.344C216.39 425.342 216.381 425.341 216.376 425.34C216.371 425.339 216.367 425.339 216.366 425.338C216.364 425.338 216.362 425.338 216.362 425.338C216.361 425.337 216.365 425.338 216.377 425.341C216.401 425.345 216.446 425.354 216.53 425.371C216.697 425.405 217.014 425.468 217.614 425.589L217.811 424.609L218.009 423.629C217.409 423.508 217.092 423.444 216.924 423.41C216.84 423.393 216.792 423.384 216.764 423.378C216.751 423.376 216.739 423.373 216.729 423.372C216.725 423.371 216.716 423.369 216.705 423.367C216.7 423.366 216.689 423.365 216.676 423.363C216.667 423.362 216.634 423.357 216.592 423.355L216.539 424.353ZM217.811 424.609L218.009 423.629L216.737 423.372L216.539 424.352L216.341 425.333L217.614 425.589L217.811 424.609ZM216.539 424.352L217.519 424.55L217.776 423.278L216.796 423.08L215.815 422.882L215.559 424.155L216.539 424.352ZM216.796 423.08L216.598 424.06L305.982 442.09L306.18 441.11L306.378 440.13L216.993 422.1L216.796 423.08ZM306.18 441.11L305.2 440.913L304.943 442.185L305.923 442.382L306.904 442.58L307.16 441.308L306.18 441.11Z" fill="#2F2D2B"/>
<rect x="163.106" y="541.634" width="149.203" height="25.8235" transform="rotate(11.4043 163.106 541.634)" fill="#2F2D2B"/>
<rect x="35.4403" y="439.608" width="96" height="44" transform="rotate(-13.553 35.4403 439.608)" fill="white" stroke="#C37855" stroke-width="4"/>
<path d="M56.9476 450.552C58.7631 448.798 60.8304 447.543 63.14 447.019C67.1058 446.129 69.7917 446.074 71.3905 447.927C73.4428 450.296 72.3531 453.422 69.1219 454.629C72.5631 454.293 74.7007 454.831 75.4086 458.314C76.1991 462.139 72.3574 463.954 67.8155 465.049C64.8601 465.762 62.2248 465.344 59.2367 464.418L60.2683 461.733C62.7995 462.539 64.4341 462.902 67.1481 462.28C71.4561 461.308 72.5516 460.254 72.2141 458.854C71.4031 455.626 64.1064 457.582 61.8666 458.122L61.3267 455.883C63.5665 455.343 70.2361 452.287 69.0664 450.166C68.4318 449.035 67.416 448.918 63.994 449.742C62.0653 450.207 60.4357 451.094 59.1288 452.364L56.9476 450.552ZM85.8885 457.796C89.3105 456.971 90.3196 454.193 89.3822 450.305C88.4449 446.416 86.2809 444.403 82.8589 445.228C79.4058 446.06 78.3967 448.838 79.3341 452.727C80.2714 456.615 82.4354 458.628 85.8885 457.796ZM76.2232 453.477C75.0383 448.561 76.8333 443.718 82.184 442.428C87.5036 441.146 91.3083 444.639 92.4931 449.555C93.678 454.47 91.883 459.313 86.5634 460.596C81.2127 461.886 77.408 458.392 76.2232 453.477ZM96.5596 439.522L105.845 448.41L106.156 448.335L110.372 436.193L113.701 435.39L113.684 435.46L117.846 452.726L114.736 453.475L111.743 441.063L108.363 450.798L105.003 451.608L97.5964 444.506L100.581 456.887L97.4701 457.637L93.2932 440.31L96.5596 439.522Z" fill="#2F2D2B"/>
<circle cx="105.972" cy="279.972" r="61.0444" transform="rotate(-13.0217 105.972 279.972)" fill="#2F2D2B" stroke="#2F2D2B" stroke-width="0.946425"/>
<circle cx="105.972" cy="279.972" r="53.9462" transform="rotate(-13.0217 105.972 279.972)" fill="white" stroke="#2F2D2B" stroke-width="0.946425"/>
<path d="M158.994 267.708L153.461 268.988" stroke="#2F2D2B" stroke-width="2.05059" stroke-linecap="round"/>
<path d="M58.4863 290.952L52.9538 292.231" stroke="#2F2D2B" stroke-width="2.05059" stroke-linecap="round"/>
<path d="M93.7104 226.952L94.9899 232.485" stroke="#2F2D2B" stroke-width="2.05059" stroke-linecap="round"/>
<path d="M116.955 327.46L118.234 332.992" stroke="#2F2D2B" stroke-width="2.05059" stroke-linecap="round"/>
<path d="M92.2041 266.643L105.825 279.787" stroke="#C37855" stroke-width="2.05059" stroke-linecap="round"/>
<path d="M98.082 245.855L106.292 281.356" stroke="#2F2D2B" stroke-width="2.05059" stroke-linecap="round"/>
<circle cx="105.972" cy="279.972" r="2.83928" transform="rotate(-13.0217 105.972 279.972)" fill="#2F2D2B"/>
</svg>
