<svg width="358" height="620" viewBox="0 0 358 620" fill="none" xmlns="http://www.w3.org/2000/svg">
<g clip-path="url(#clip0_108_307)">
<rect x="13" y="59" width="215" height="16" fill="#EAF4D3"/>
<path d="M17.568 55.428V52.74H34.34V58.676H31.54V55.428H17.568ZM16.84 62.288V59.768H24.624V57.388H27.424V59.768H36.328V52.432H39.128V53.02H41.508V55.68H39.128V64.332H36.328V62.288H16.84ZM17.904 68.336V63.268H20.704V65.648H39.66V68.336H17.904ZM43.4652 58.452C47.8612 57.584 49.9892 56.184 50.8292 54.98V52.768H53.6292L53.6012 54.896C54.4692 55.848 56.6252 57.052 60.9372 57.892L60.4332 60.468C56.4012 59.656 53.7972 58.452 52.3132 57.22C50.8572 58.704 48.1692 60.188 43.9692 61.028L43.4652 58.452ZM44.1652 68.336V61.868H63.1492V52.46H65.9492V68.336H44.1652ZM46.9652 65.704H63.1492V64.5H46.9652V65.704ZM67.625 65.592C72.077 63.828 74.233 60.636 75.045 57.864V52.768H77.845L77.817 57.864C78.629 60.636 80.785 63.828 85.237 65.592L84.285 68C80.365 66.46 77.845 63.828 76.445 61.224C75.017 63.828 72.497 66.46 68.577 68L67.625 65.592ZM87.281 68.336V52.46H90.081V53.02H93.021V55.68H90.081V68.336H87.281ZM95.1768 55.456V52.768H116.121V59.46H97.7528V60.776H116.485V63.464H107.301V65.088H117.269V67.776H94.4208V65.088H104.501V63.464H94.9528V56.772H113.321V55.456H95.1768ZM134.754 65.508C139.514 65.508 140.354 64.5 140.354 62.596C140.354 60.664 139.542 59.684 134.754 59.684C129.938 59.684 129.042 60.692 129.042 62.596C129.042 64.5 129.938 65.508 134.754 65.508ZM126.242 62.596C126.242 59.572 128.37 57.052 134.754 57.052C141.138 57.052 143.154 59.6 143.154 62.596C143.154 65.564 141.138 68.14 134.754 68.14C128.37 68.14 126.242 65.592 126.242 62.596ZM126.662 56.324V53.664H133.298V52.264H136.07V53.664H142.706V56.324H126.662ZM145.114 68.336V52.46H147.914V53.02H150.854V55.68H147.914V68.336H145.114ZM170.929 68.336V52.46H173.729V53.02H176.669V55.68H173.729V68.336H170.929ZM152.813 68.056V52.768H155.613V65.368H168.773V68.056H152.813ZM178.625 68.336V65.648H186.157V63.352H179.185V52.768H195.397V55.456H181.985V60.664H196.013V63.352H188.957V65.648H198.673V52.432H201.473V68.336H178.625ZM223.077 68.336V52.46H225.877V68.336H223.077ZM203.561 55.456V52.768H220.949V68.056H218.149V55.456H203.561Z" fill="#2F2D2B"/>
<path d="M28.015 94.315H30.085V95.41H28.015V102.31H26.815V88.615H28.015V94.315ZM16.99 89.35H18.19V100.105L25.48 99.94V101.005L16.99 101.23V89.35ZM42.1214 94.315H44.2664V95.41H42.1214V102.31H40.9214V88.615H42.1214V94.315ZM35.5964 99.94H40.0364V101.035H30.3614V99.94H34.3964V96.76C33.6864 96.69 33.0514 96.485 32.4914 96.145C31.9314 95.795 31.4914 95.34 31.1714 94.78C30.8614 94.21 30.7064 93.575 30.7064 92.875C30.7064 92.115 30.8864 91.44 31.2464 90.85C31.6164 90.25 32.1214 89.785 32.7614 89.455C33.4114 89.125 34.1364 88.96 34.9364 88.96C35.7364 88.96 36.4564 89.125 37.0964 89.455C37.7464 89.785 38.2564 90.25 38.6264 90.85C38.9964 91.44 39.1814 92.115 39.1814 92.875C39.1814 93.565 39.0264 94.19 38.7164 94.75C38.4164 95.3 37.9914 95.75 37.4414 96.1C36.9014 96.45 36.2864 96.665 35.5964 96.745V99.94ZM31.9214 92.875C31.9214 93.735 32.1914 94.42 32.7314 94.93C33.2814 95.44 34.0164 95.695 34.9364 95.695C35.8564 95.695 36.5914 95.44 37.1414 94.93C37.6914 94.42 37.9664 93.735 37.9664 92.875C37.9664 92.015 37.6914 91.33 37.1414 90.82C36.5914 90.31 35.8564 90.055 34.9364 90.055C34.0164 90.055 33.2814 90.31 32.7314 90.82C32.1914 91.33 31.9214 92.015 31.9214 92.875ZM59.2199 102.31V88.615H60.4199V102.31H59.2199ZM50.0849 93.865H55.0799V89.17H56.2799V101.23L48.8849 101.47V89.17H50.0849V93.865ZM50.0849 94.93V100.33L55.0799 100.195V94.93H50.0849ZM63.0064 93.19C64.4664 92.75 65.7164 92.23 66.7564 91.63C67.2764 91.34 67.6514 91.03 67.8814 90.7C68.1114 90.36 68.2264 89.94 68.2264 89.44V88.75H69.4264V89.44C69.4264 89.93 69.5264 90.33 69.7264 90.64C69.9364 90.95 70.2714 91.24 70.7314 91.51C71.2514 91.82 71.8714 92.135 72.5914 92.455C73.3114 92.765 73.9914 93.01 74.6314 93.19V94.345C73.9414 94.145 73.1914 93.875 72.3814 93.535C71.5714 93.195 70.8964 92.88 70.3564 92.59C70.0064 92.39 69.7064 92.2 69.4564 92.02C69.2064 91.83 68.9964 91.625 68.8264 91.405C68.4664 91.875 67.8164 92.355 66.8764 92.845C65.6164 93.515 64.3264 94.03 63.0064 94.39V93.19ZM75.3664 96.64H62.2864V95.545H75.3664V96.64ZM62.8564 101.305C64.1964 101.095 65.3564 100.8 66.3364 100.42C66.9864 100.16 67.4564 99.875 67.7464 99.565C68.0364 99.245 68.1814 98.855 68.1814 98.395V97.51H69.4414V98.395C69.4414 99.315 70.0614 99.99 71.3014 100.42C72.5214 100.83 73.6764 101.115 74.7664 101.275V102.385C73.7464 102.255 72.5764 101.975 71.2564 101.545C70.6364 101.335 70.1314 101.105 69.7414 100.855C69.3514 100.605 69.0464 100.315 68.8264 99.985C68.6564 100.275 68.3764 100.54 67.9864 100.78C67.5964 101.03 67.0414 101.285 66.3214 101.545C65.0814 101.975 63.9264 102.275 62.8564 102.445V101.305ZM81.4178 90.1H85.1228V91.18H76.3328V90.1H80.1578V88.375H81.4178V90.1ZM87.8978 88.615V93.055H89.8928V94.15H87.8978V99.13H86.6978V88.615H87.8978ZM80.8178 97.705C80.0478 97.705 79.3778 97.59 78.8078 97.36C78.2378 97.12 77.7978 96.785 77.4878 96.355C77.1778 95.925 77.0228 95.425 77.0228 94.855C77.0228 94.285 77.1778 93.79 77.4878 93.37C77.7978 92.94 78.2378 92.61 78.8078 92.38C79.3778 92.14 80.0478 92.02 80.8178 92.02C81.5778 92.02 82.2428 92.14 82.8128 92.38C83.3928 92.61 83.8378 92.94 84.1478 93.37C84.4678 93.79 84.6278 94.285 84.6278 94.855C84.6278 95.425 84.4678 95.925 84.1478 96.355C83.8378 96.785 83.3928 97.12 82.8128 97.36C82.2428 97.59 81.5778 97.705 80.8178 97.705ZM80.8178 93.07C79.9978 93.07 79.3578 93.235 78.8978 93.565C78.4478 93.885 78.2228 94.315 78.2228 94.855C78.2228 95.405 78.4478 95.845 78.8978 96.175C79.3578 96.495 79.9978 96.655 80.8178 96.655C81.6378 96.655 82.2778 96.495 82.7378 96.175C83.1978 95.845 83.4278 95.405 83.4278 94.855C83.4278 94.315 83.1978 93.885 82.7378 93.565C82.2778 93.235 81.6378 93.07 80.8178 93.07ZM77.6378 98.11H78.8378V101.17H88.3178V102.265H77.6378V98.11ZM105.461 88.615V93.07H107.456V94.165H105.461V99.565H104.261V88.615H105.461ZM102.191 94.27H100.991V90.115H94.3163V89.02H102.191V94.27ZM98.4113 95.545H103.376V96.64H93.7763V95.545H97.2113V92.35H98.4113V95.545ZM94.7363 98.065H95.9363V101.17H105.881V102.265H94.7363V98.065ZM120.303 95.995H119.103V88.615H120.303V95.995ZM108.513 94.675C109.483 94.255 110.258 93.79 110.838 93.28C111.278 92.9 111.603 92.56 111.813 92.26C112.033 91.95 112.178 91.64 112.248 91.33C112.318 91.01 112.353 90.6 112.353 90.1V88.81H113.553V90.1C113.553 90.78 113.633 91.31 113.793 91.69C113.953 92.07 114.268 92.47 114.738 92.89C115.428 93.49 116.303 94.025 117.363 94.495V95.725C116.333 95.315 115.448 94.84 114.708 94.3C113.868 93.68 113.283 93.125 112.953 92.635C112.763 92.945 112.513 93.26 112.203 93.58C111.893 93.9 111.558 94.19 111.198 94.45C110.358 95.06 109.463 95.555 108.513 95.935V94.675ZM120.303 102.445H109.413V97.045H120.303V102.445ZM110.613 98.14V101.35H119.103V98.14H110.613ZM133.674 94.315H135.744V95.41H133.674V102.31H132.474V88.615H133.674V94.315ZM128.364 97.585C128.694 98.005 129.089 98.395 129.549 98.755C130.009 99.115 130.479 99.42 130.959 99.67V101.08C129.789 100.42 128.904 99.785 128.304 99.175C127.904 98.805 127.544 98.415 127.224 98.005C126.914 97.595 126.679 97.2 126.519 96.82C126.399 97.19 126.134 97.645 125.724 98.185C125.314 98.725 124.909 99.17 124.509 99.52C124.159 99.87 123.764 100.2 123.324 100.51C122.894 100.83 122.479 101.075 122.079 101.245V99.835C123.029 99.295 123.799 98.675 124.389 97.975C124.839 97.475 125.164 97.01 125.364 96.58C125.574 96.15 125.719 95.61 125.799 94.96C125.879 94.3 125.919 93.36 125.919 92.14V89.2H127.119V92.14C127.119 93.33 127.154 94.24 127.224 94.87C127.294 95.5 127.409 96.005 127.569 96.385C127.739 96.755 128.004 97.155 128.364 97.585ZM148.396 94.06H137.341V90.91H147.016V89.905H137.341V88.825H148.216V91.945H138.541V92.98H148.396V94.06ZM149.356 96.145H136.276V95.065H149.356V96.145ZM148.606 102.535H137.251V99.37H147.181V98.35H137.251V97.27H148.381V100.405H138.451V101.455H148.606V102.535ZM165.344 94.27H167.414V95.365H165.344V102.31H164.144V88.615H165.344V94.27ZM154.184 90.565V89.47H161.309V93.94C161.309 94.96 161.239 95.79 161.099 96.43C160.959 97.07 160.699 97.645 160.319 98.155C159.939 98.665 159.369 99.19 158.609 99.73C158.119 100.06 157.424 100.39 156.524 100.72C155.634 101.06 154.839 101.295 154.139 101.425V100.255C154.849 100.065 155.474 99.875 156.014 99.685C156.554 99.485 157.049 99.255 157.499 98.995C158.149 98.625 158.659 98.235 159.029 97.825C159.399 97.405 159.669 96.89 159.839 96.28C160.019 95.66 160.109 94.88 160.109 93.94V90.565H154.184ZM178.986 88.615H180.186V98.785H178.986V88.615ZM172.806 93.34C172.656 93.69 172.391 94.07 172.011 94.48C171.641 94.88 171.241 95.25 170.811 95.59C170.411 95.89 169.991 96.175 169.551 96.445C169.111 96.705 168.726 96.89 168.396 97V95.71C169.256 95.33 170.041 94.81 170.751 94.15C171.311 93.63 171.686 93.14 171.876 92.68C172.076 92.21 172.176 91.6 172.176 90.85V90.4H168.486V89.305H177.021V90.4H173.436V90.85C173.436 91.59 173.521 92.185 173.691 92.635C173.861 93.085 174.216 93.555 174.756 94.045C175.486 94.665 176.296 95.16 177.186 95.53V96.805C176.306 96.445 175.511 96.01 174.801 95.5C174.301 95.15 173.886 94.8 173.556 94.45C173.236 94.1 172.986 93.73 172.806 93.34ZM170.631 97.615V101.17H180.561V102.265H169.431V97.615H170.631ZM197.014 94.315H199.084V95.41H197.014V102.31H195.814V88.615H197.014V94.315ZM191.704 97.585C192.034 98.005 192.429 98.395 192.889 98.755C193.349 99.115 193.819 99.42 194.299 99.67V101.08C193.129 100.42 192.244 99.785 191.644 99.175C191.244 98.805 190.884 98.415 190.564 98.005C190.254 97.595 190.019 97.2 189.859 96.82C189.739 97.19 189.474 97.645 189.064 98.185C188.654 98.725 188.249 99.17 187.849 99.52C187.499 99.87 187.104 100.2 186.664 100.51C186.234 100.83 185.819 101.075 185.419 101.245V99.835C186.369 99.295 187.139 98.675 187.729 97.975C188.179 97.475 188.504 97.01 188.704 96.58C188.914 96.15 189.059 95.61 189.139 94.96C189.219 94.3 189.259 93.36 189.259 92.14V89.2H190.459V92.14C190.459 93.33 190.494 94.24 190.564 94.87C190.634 95.5 190.749 96.005 190.909 96.385C191.079 96.755 191.344 97.155 191.704 97.585ZM211.12 91.99H213.115V93.085H211.12V96.52H209.92V88.615H211.12V91.99ZM201.07 94.84L208.66 94.675V95.74L199.87 95.965V91.825H205.87V90.025H199.87V88.93H207.07V92.89H201.07V94.84ZM211.12 102.445H200.335V97.495H211.12V102.445ZM209.92 98.59H201.535V101.35H209.92V98.59ZM225.752 93.145H214.772V88.825H225.752V89.92H215.972V92.05H225.752V93.145ZM226.802 95.635H213.722V94.555H226.802V95.635ZM226.052 102.535H214.697V99.205H224.627V98.05H214.697V96.97H225.827V100.24H215.897V101.455H226.052V102.535ZM234.368 93.565C232.528 93.565 231.118 93.35 230.138 92.92C229.158 92.48 228.668 91.855 228.668 91.045C228.668 90.235 229.158 89.615 230.138 89.185C231.118 88.745 232.528 88.525 234.368 88.525C236.208 88.525 237.618 88.745 238.598 89.185C239.578 89.615 240.068 90.235 240.068 91.045C240.068 91.855 239.578 92.48 238.598 92.92C237.618 93.35 236.208 93.565 234.368 93.565ZM234.368 92.485C235.818 92.485 236.928 92.365 237.698 92.125C238.478 91.875 238.868 91.515 238.868 91.045C238.868 90.575 238.478 90.22 237.698 89.98C236.928 89.73 235.818 89.605 234.368 89.605C232.918 89.605 231.803 89.73 231.023 89.98C230.253 90.22 229.868 90.575 229.868 91.045C229.868 91.515 230.253 91.875 231.023 92.125C231.803 92.365 232.918 92.485 234.368 92.485ZM240.908 95.725H227.828V94.645H240.908V95.725ZM240.158 102.535H228.803V99.205H238.733V98.05H228.803V96.97H239.933V100.24H230.003V101.455H240.158V102.535ZM27.55 116.775V108.615H28.75V116.775H27.55ZM21.475 111.3C21.345 111.47 21.15 111.66 20.89 111.87C20.64 112.08 20.365 112.27 20.065 112.44C19.625 112.7 19.145 112.94 18.625 113.16C18.115 113.38 17.61 113.55 17.11 113.67V112.44C17.51 112.33 17.93 112.18 18.37 111.99C18.82 111.79 19.215 111.59 19.555 111.39C19.945 111.15 20.23 110.93 20.41 110.73C20.6 110.53 20.725 110.33 20.785 110.13C20.845 109.92 20.875 109.655 20.875 109.335V108.675H22.075V109.335C22.075 109.675 22.105 109.95 22.165 110.16C22.225 110.37 22.345 110.565 22.525 110.745C22.705 110.925 22.975 111.12 23.335 111.33C23.655 111.51 24.035 111.7 24.475 111.9C24.925 112.1 25.375 112.27 25.825 112.41V113.595C25.295 113.435 24.76 113.25 24.22 113.04C23.69 112.82 23.22 112.595 22.81 112.365C22.53 112.205 22.265 112.03 22.015 111.84C21.775 111.64 21.595 111.46 21.475 111.3ZM21.625 117.675H20.425L20.575 115.665H16.63V114.57H26.665V115.665H21.775L21.625 117.675ZM18.91 118.86H27.55V117.54H28.75V122.445H17.71V117.54H18.91V118.86ZM18.91 121.35H27.55V119.91H18.91V121.35ZM42.2564 122.31V108.615H43.4564V122.31H42.2564ZM38.9264 114.315V108.645H40.1264V122.25H38.9264V115.41H36.4814C36.4014 116.43 36.1864 117.255 35.8364 117.885C35.4864 118.515 34.9064 119.14 34.0964 119.76C33.7464 120.02 33.2664 120.29 32.6564 120.57C32.0564 120.85 31.4664 121.08 30.8864 121.26V120.09C31.8664 119.72 32.6614 119.33 33.2714 118.92C33.7914 118.57 34.1914 118.21 34.4714 117.84C34.7614 117.47 34.9764 116.99 35.1164 116.4C35.2564 115.8 35.3264 115.005 35.3264 114.015V110.565H30.9014V109.47H36.5264V114.015V114.315H38.9264ZM52.8679 113.295C52.7179 113.585 52.4529 113.9 52.0729 114.24C51.7029 114.58 51.3079 114.885 50.8879 115.155C50.4879 115.405 50.0679 115.64 49.6279 115.86C49.1979 116.08 48.8129 116.245 48.4729 116.355V115.095C49.2929 114.775 50.0779 114.34 50.8279 113.79C51.3879 113.37 51.7629 112.97 51.9529 112.59C52.1429 112.21 52.2379 111.715 52.2379 111.105V110.895H48.5629V109.8H52.2379V108.33H53.4979V109.8H57.0679V110.895H53.4979V111.105C53.4979 111.715 53.5829 112.205 53.7529 112.575C53.9229 112.945 54.2779 113.32 54.8179 113.7C55.6179 114.23 56.4229 114.645 57.2329 114.945V116.175C56.4529 115.925 55.6529 115.555 54.8329 115.065C53.9029 114.505 53.2479 113.915 52.8679 113.295ZM59.9779 108.615V112.035H61.9729V113.13H59.9779V116.565H58.7779V108.615H59.9779ZM55.4029 118.695C55.4029 119.085 55.5429 119.425 55.8229 119.715C56.1029 120.005 56.5479 120.29 57.1579 120.57C57.5779 120.75 58.0879 120.92 58.6879 121.08C59.2979 121.24 59.9179 121.375 60.5479 121.485V122.61C60.0279 122.53 59.4379 122.4 58.7779 122.22C58.1279 122.04 57.5479 121.855 57.0379 121.665C56.4279 121.425 55.9379 121.185 55.5679 120.945C55.2079 120.715 54.9479 120.465 54.7879 120.195C54.6279 120.455 54.3629 120.7 53.9929 120.93C53.6329 121.17 53.1279 121.42 52.4779 121.68C51.3279 122.13 50.1679 122.45 48.9979 122.64V121.515C50.4579 121.245 51.5979 120.925 52.4179 120.555C53.0079 120.305 53.4429 120.035 53.7229 119.745C54.0029 119.445 54.1429 119.095 54.1429 118.695V118.62H49.1329V117.525H60.3979V118.62H55.4029V118.695ZM69.1193 113.565C67.2793 113.565 65.8693 113.35 64.8893 112.92C63.9093 112.48 63.4193 111.855 63.4193 111.045C63.4193 110.235 63.9093 109.615 64.8893 109.185C65.8693 108.745 67.2793 108.525 69.1193 108.525C70.9593 108.525 72.3693 108.745 73.3493 109.185C74.3293 109.615 74.8193 110.235 74.8193 111.045C74.8193 111.855 74.3293 112.48 73.3493 112.92C72.3693 113.35 70.9593 113.565 69.1193 113.565ZM69.1193 112.485C70.5693 112.485 71.6793 112.365 72.4493 112.125C73.2293 111.875 73.6193 111.515 73.6193 111.045C73.6193 110.575 73.2293 110.22 72.4493 109.98C71.6793 109.73 70.5693 109.605 69.1193 109.605C67.6693 109.605 66.5543 109.73 65.7743 109.98C65.0043 110.22 64.6193 110.575 64.6193 111.045C64.6193 111.515 65.0043 111.875 65.7743 112.125C66.5543 112.365 67.6693 112.485 69.1193 112.485ZM75.6593 115.725H62.5793V114.645H75.6593V115.725ZM74.9093 122.535H63.5543V119.205H73.4843V118.05H63.5543V116.97H74.6843V120.24H64.7543V121.455H74.9093V122.535ZM86.6828 112.035C86.4828 112.345 86.1828 112.68 85.7828 113.04C85.3828 113.4 84.8778 113.76 84.2678 114.12C83.0478 114.86 81.8228 115.41 80.5928 115.77V114.48C81.8128 114.07 82.9728 113.52 84.0728 112.83C84.8128 112.36 85.3278 111.895 85.6178 111.435C85.9178 110.965 86.0678 110.38 86.0678 109.68V108.78H87.2978V109.68C87.2978 110.37 87.4228 110.925 87.6728 111.345C87.9328 111.765 88.3678 112.19 88.9778 112.62C89.3378 112.89 89.8778 113.21 90.5978 113.58C91.3178 113.95 92.0378 114.26 92.7578 114.51V115.755C92.0778 115.535 91.3628 115.25 90.6128 114.9C89.8728 114.54 89.2378 114.195 88.7078 113.865C87.7678 113.245 87.0928 112.635 86.6828 112.035ZM80.1428 116.985H93.2228V118.08H87.2828V122.4H86.0828V118.08H80.1428V116.985ZM108.746 108.615H109.946V116.34H108.746V108.615ZM102.071 115.92C101.301 115.92 100.611 115.765 100.001 115.455C99.4013 115.145 98.9263 114.72 98.5763 114.18C98.2363 113.63 98.0663 113.005 98.0663 112.305C98.0663 111.605 98.2363 110.985 98.5763 110.445C98.9263 109.895 99.4013 109.47 100.001 109.17C100.611 108.86 101.301 108.705 102.071 108.705C102.851 108.705 103.546 108.86 104.156 109.17C104.766 109.47 105.241 109.895 105.581 110.445C105.921 110.985 106.091 111.605 106.091 112.305C106.091 113.005 105.921 113.63 105.581 114.18C105.241 114.72 104.766 115.145 104.156 115.455C103.546 115.765 102.851 115.92 102.071 115.92ZM102.071 109.785C101.531 109.785 101.046 109.89 100.616 110.1C100.186 110.31 99.8513 110.61 99.6113 111C99.3813 111.38 99.2663 111.815 99.2663 112.305C99.2663 112.795 99.3863 113.235 99.6263 113.625C99.8663 114.005 100.196 114.305 100.616 114.525C101.046 114.735 101.531 114.84 102.071 114.84C102.611 114.84 103.096 114.735 103.526 114.525C103.956 114.305 104.291 114.005 104.531 113.625C104.771 113.235 104.891 112.795 104.891 112.305C104.891 111.815 104.771 111.38 104.531 111C104.291 110.61 103.956 110.31 103.526 110.1C103.106 109.89 102.621 109.785 102.071 109.785ZM109.166 120.045C109.696 120.575 110.231 120.93 110.771 121.11V122.4C110.471 122.31 110.156 122.17 109.826 121.98C109.506 121.79 109.231 121.595 109.001 121.395C108.701 121.135 108.446 120.895 108.236 120.675C108.026 120.455 107.856 120.225 107.726 119.985C107.456 120.495 107.036 120.985 106.466 121.455C105.916 121.915 105.381 122.25 104.861 122.46C104.411 122.31 103.916 122.015 103.376 121.575C103.076 121.335 102.821 121.09 102.611 120.84C102.401 120.59 102.201 120.305 102.011 119.985C101.841 120.395 101.426 120.905 100.766 121.515C100.536 121.715 100.261 121.91 99.9413 122.1C99.6213 122.3 99.2863 122.465 98.9363 122.595V121.26C99.6063 120.96 100.136 120.59 100.526 120.15C101.096 119.54 101.381 118.8 101.381 117.93V117.075H102.611V117.93C102.611 118.35 102.666 118.725 102.776 119.055C102.896 119.385 103.091 119.705 103.361 120.015C103.841 120.595 104.341 121.01 104.861 121.26C105.381 121 105.876 120.585 106.346 120.015C106.626 119.705 106.821 119.385 106.931 119.055C107.041 118.725 107.096 118.35 107.096 117.93V117.075H108.326V117.93C108.326 118.78 108.606 119.485 109.166 120.045ZM122.853 108.615H124.053V122.31H122.853V115.665H120.093C120.053 116.895 119.868 117.96 119.538 118.86C119.218 119.76 118.763 120.45 118.173 120.93C117.593 121.42 116.903 121.665 116.103 121.665C115.263 121.665 114.543 121.4 113.943 120.87C113.343 120.35 112.883 119.605 112.563 118.635C112.253 117.665 112.098 116.525 112.098 115.215C112.098 113.915 112.253 112.78 112.563 111.81C112.883 110.84 113.343 110.095 113.943 109.575C114.543 109.045 115.263 108.78 116.103 108.78C116.893 108.78 117.578 109.015 118.158 109.485C118.738 109.955 119.188 110.625 119.508 111.495C119.838 112.365 120.028 113.39 120.078 114.57H122.853V108.615ZM116.103 120.57C116.693 120.57 117.193 120.35 117.603 119.91C118.023 119.47 118.343 118.85 118.563 118.05C118.783 117.24 118.893 116.295 118.893 115.215C118.893 114.145 118.783 113.21 118.563 112.41C118.343 111.6 118.023 110.975 117.603 110.535C117.183 110.095 116.683 109.875 116.103 109.875C115.513 109.875 115.008 110.095 114.588 110.535C114.168 110.975 113.848 111.6 113.628 112.41C113.408 113.21 113.298 114.145 113.298 115.215C113.298 116.295 113.408 117.24 113.628 118.05C113.848 118.85 114.168 119.47 114.588 119.91C115.008 120.35 115.513 120.57 116.103 120.57ZM135.894 120.51H138.999V121.605H125.919V120.51H129.024V116.49C128.244 116.14 127.639 115.675 127.209 115.095C126.779 114.505 126.564 113.83 126.564 113.07C126.564 112.26 126.809 111.55 127.299 110.94C127.799 110.32 128.494 109.845 129.384 109.515C130.274 109.175 131.299 109.005 132.459 109.005C133.619 109.005 134.644 109.175 135.534 109.515C136.424 109.845 137.114 110.32 137.604 110.94C138.104 111.55 138.354 112.26 138.354 113.07C138.354 113.83 138.139 114.505 137.709 115.095C137.279 115.675 136.674 116.14 135.894 116.49V120.51ZM127.764 113.07C127.764 113.67 127.959 114.195 128.349 114.645C128.739 115.095 129.289 115.445 129.999 115.695C130.709 115.935 131.529 116.055 132.459 116.055C133.389 116.055 134.209 115.935 134.919 115.695C135.629 115.445 136.179 115.095 136.569 114.645C136.959 114.195 137.154 113.67 137.154 113.07C137.154 112.47 136.959 111.945 136.569 111.495C136.179 111.045 135.629 110.7 134.919 110.46C134.209 110.21 133.389 110.085 132.459 110.085C131.529 110.085 130.709 110.21 129.999 110.46C129.289 110.7 128.739 111.045 128.349 111.495C127.959 111.945 127.764 112.47 127.764 113.07ZM130.224 120.51H134.694V116.895C133.974 117.055 133.229 117.135 132.459 117.135C131.689 117.135 130.944 117.055 130.224 116.895V120.51ZM142.246 121.395H140.431V119.7H142.246V121.395Z" fill="#2F2D2B"/>
<path d="M0 387.386C16.7258 405.756 106 436.886 152.769 420.583C166.671 415.737 200.277 403.65 217.359 371.986C221.985 362.801 227 344.886 215 318.386C202.5 295.886 152.769 283.386 135.687 327.898C131.595 342.26 128.5 377 168.249 400.75C187.11 409.935 255 460.75 365.5 390" stroke="#2F2D2B" stroke-width="2" stroke-linecap="round" stroke-dasharray="8 8"/>
<path d="M28.5926 552.094L28.9668 553.485L26.2726 554.21L26.4044 557.679L29.1681 556.935L29.5423 558.326L26.4657 559.153L26.6329 563.377L25.1728 563.77L25.0056 559.546L21.7553 560.421L21.9224 564.645L20.4624 565.037L20.2952 560.814L17.7227 561.506L17.3485 560.115L20.2513 559.334L20.1194 555.865L17.1645 556.661L16.7904 555.27L20.0581 554.391L19.8883 550.019L21.3484 549.626L21.5182 553.998L24.7512 553.128L24.5814 548.756L26.0415 548.363L26.2113 552.735L28.5926 552.094ZM21.7114 558.942L24.9444 558.072L24.8125 554.603L21.5795 555.473L21.7114 558.942ZM41.85 543.364L43.0005 547.64L45.3123 547.018L45.6537 548.287L43.3419 548.909L44.6328 553.706L43.2422 554.08L40.4594 543.738L41.85 543.364ZM28.9306 547.306L37.6214 544.968L39.6653 552.563L31.0399 555.145L28.9306 547.306ZM32.0796 553.467L37.938 551.686L36.5723 546.611L30.6625 548.201L32.0796 553.467ZM39.4396 555.327C39.6204 555.999 39.9134 556.511 40.3184 556.861C40.7351 557.209 41.3683 557.461 42.2182 557.618C43.6751 557.859 45.0867 557.933 46.4532 557.839L46.8039 559.143C45.3617 559.232 43.9358 559.175 42.5262 558.97C41.753 558.868 41.1099 558.717 40.597 558.52C40.084 558.322 39.6602 558.064 39.3256 557.744C39.2306 558.13 39.0066 558.544 38.6536 558.987C38.3005 559.43 37.7683 559.946 37.0569 560.535C35.9752 561.41 34.8043 562.185 33.5443 562.86L33.1888 561.538C34.5268 560.831 35.7216 560.006 36.773 559.064C37.3832 558.515 37.7829 557.991 37.9719 557.493C38.1578 556.983 38.1604 556.392 37.9795 555.72L37.7597 554.903L39.2198 554.51L39.4396 555.327ZM59.9118 547.488L57.6575 539.11L59.048 538.736L61.3023 547.114L59.9118 547.488ZM51.7717 545.708C51.6914 546.103 51.4856 546.562 51.1544 547.086C50.8348 547.607 50.4695 548.097 50.0585 548.555C49.6792 548.993 49.2705 549.414 48.8323 549.817C48.391 550.209 47.9921 550.528 47.6356 550.773L47.2474 549.33C48.2012 548.626 48.9763 547.859 49.5728 547.027C50.0845 546.343 50.3881 545.739 50.4835 545.216C50.5874 544.679 50.5412 544.045 50.3448 543.315L50.2793 543.072L46.0034 544.222L45.6619 542.953L55.5348 540.297L55.8762 541.566L51.7393 542.679L51.8048 542.922C51.9981 543.641 52.2614 544.203 52.5947 544.611C52.928 545.018 53.4657 545.377 54.2077 545.687C55.1747 546.048 56.2385 546.284 57.399 546.394L57.7779 547.802C56.7256 547.724 55.6728 547.529 54.6193 547.216C53.346 546.826 52.3968 546.323 51.7717 545.708ZM50.8828 553.143L60.7209 550.496L60.1971 548.549L61.5876 548.175L63.3602 554.762L50.741 558.158L48.9684 551.57L50.359 551.196L50.8828 553.143ZM51.7901 556.515L61.6282 553.868L61.0483 551.712L51.2102 554.359L51.7901 556.515Z" fill="#2F2D2B"/>
<path d="M288.646 366.032L288.573 367.47L285.787 367.33L284.843 370.67L287.702 370.815L287.629 372.253L284.447 372.092L283.304 376.162L281.794 376.085L282.937 372.016L279.575 371.846L278.433 375.916L276.922 375.84L278.065 371.77L275.404 371.636L275.477 370.197L278.479 370.349L279.423 367.008L276.367 366.854L276.439 365.416L279.819 365.587L281.005 361.375L282.515 361.451L281.329 365.663L284.673 365.832L285.859 361.62L287.369 361.696L286.183 365.908L288.646 366.032ZM279.989 370.425L283.333 370.594L284.277 367.253L280.933 367.085L279.989 370.425ZM298.973 367.545C298.693 368.095 298.285 368.567 297.748 368.961C297.224 369.355 296.521 369.71 295.64 370.026C295.004 370.246 294.285 370.438 293.484 370.602C292.695 370.766 291.719 370.939 290.556 371.121L290.625 369.755C292.476 369.5 293.874 369.192 294.817 368.831C295.623 368.571 296.257 368.273 296.719 367.936C297.181 367.586 297.514 367.183 297.717 366.724C297.92 366.266 298.039 365.707 298.072 365.048L298.146 363.574L291.045 363.216L291.112 361.903L299.651 362.334L299.51 365.121C299.487 365.576 299.444 365.953 299.381 366.25L303.156 366.44L303.391 361.784L304.829 361.857L304.22 373.937L302.781 373.865L303.09 367.753L298.973 367.545ZM293.207 372.156L292.996 376.345L304.519 376.926L304.453 378.239L291.491 377.584L291.769 372.083L293.207 372.156ZM320.855 362.666L320.648 366.765L323.039 366.885L322.973 368.198L320.582 368.077L320.373 372.212L318.935 372.139L319.417 362.593L320.855 362.666ZM315.946 365.644C315.903 366.495 315.753 367.208 315.496 367.784C315.239 368.348 314.837 368.826 314.288 369.219C313.74 369.612 312.995 369.959 312.055 370.26C310.956 370.601 309.257 370.93 306.958 371.246L307.027 369.88C308.804 369.681 310.211 369.416 311.249 369.084C312.432 368.735 313.26 368.29 313.731 367.749C314.203 367.208 314.462 366.482 314.508 365.572L314.569 364.367L307.414 364.006L307.48 362.694L316.073 363.127L315.946 365.644ZM314.231 372.496C316.34 372.603 317.932 372.966 319.006 373.585C320.08 374.203 320.589 375.064 320.534 376.167C320.479 377.257 319.886 378.057 318.755 378.564C317.623 379.072 316.003 379.272 313.894 379.166C311.785 379.059 310.193 378.697 309.119 378.078C308.045 377.459 307.535 376.604 307.59 375.513C307.646 374.411 308.239 373.606 309.37 373.098C310.501 372.59 312.121 372.39 314.231 372.496ZM313.96 377.854C315.614 377.937 316.875 377.827 317.744 377.522C318.612 377.229 319.062 376.753 319.095 376.094C319.129 375.423 318.729 374.898 317.895 374.52C317.062 374.129 315.818 373.892 314.164 373.809C312.511 373.725 311.249 373.836 310.381 374.14C309.513 374.433 309.062 374.915 309.028 375.586C308.995 376.245 309.395 376.764 310.229 377.143C311.063 377.533 312.306 377.77 313.96 377.854Z" fill="#2F2D2B"/>
<path d="M125.786 238.713L125.634 240.144L122.859 239.848L121.73 243.131L124.576 243.435L124.423 244.867L121.255 244.528L119.887 248.527L118.383 248.367L119.752 244.368L116.405 244.01L115.036 248.009L113.533 247.849L114.901 243.849L112.252 243.567L112.405 242.135L115.394 242.454L116.523 239.171L113.481 238.846L113.634 237.414L116.998 237.774L118.418 233.635L119.922 233.796L118.502 237.934L121.831 238.29L123.251 234.151L124.754 234.312L123.334 238.451L125.786 238.713ZM116.898 242.615L120.227 242.97L121.356 239.687L118.027 239.332L116.898 242.615ZM135.638 241.937C135.17 242.478 134.579 242.874 133.864 243.123C133.15 243.373 132.375 243.453 131.539 243.364C130.645 243.268 129.859 242.997 129.183 242.551C128.507 242.093 128.003 241.508 127.668 240.796C127.347 240.074 127.233 239.283 127.324 238.424C127.416 237.565 127.695 236.823 128.16 236.196C128.638 235.56 129.255 235.094 130.01 234.801C130.767 234.496 131.593 234.391 132.488 234.486C133.311 234.574 134.04 234.815 134.673 235.209C135.308 235.59 135.805 236.084 136.163 236.689L140.548 237.158L140.746 235.296L142.178 235.449L141.131 245.257L139.699 245.104L139.987 242.402L135.638 241.937ZM128.756 238.577C128.691 239.186 128.77 239.743 128.994 240.25C129.217 240.756 129.559 241.173 130.019 241.5C130.492 241.816 131.045 242.008 131.677 242.075C132.31 242.143 132.884 242.071 133.402 241.861C133.932 241.64 134.36 241.306 134.685 240.858C135.023 240.411 135.224 239.884 135.289 239.275C135.354 238.666 135.269 238.108 135.033 237.6C134.81 237.094 134.462 236.682 133.989 236.366C133.529 236.04 132.983 235.843 132.35 235.775C131.718 235.708 131.136 235.784 130.606 236.005C130.089 236.215 129.667 236.544 129.342 236.992C129.016 237.44 128.821 237.969 128.756 238.577ZM140.408 238.464L136.667 238.065C136.753 238.508 136.771 238.963 136.721 239.428C136.669 239.917 136.563 240.34 136.404 240.698L140.127 241.095L140.408 238.464ZM134.705 245.078C136.901 245.312 138.537 245.759 139.613 246.417C140.701 247.076 141.188 247.937 141.075 248.999C140.962 250.061 140.303 250.799 139.101 251.213C137.908 251.641 136.215 251.738 134.019 251.503C131.823 251.269 130.182 250.816 129.095 250.145C128.019 249.487 127.538 248.627 127.651 247.565C127.765 246.503 128.417 245.764 129.608 245.348C130.811 244.933 132.51 244.843 134.705 245.078ZM134.159 250.197C135.889 250.382 137.218 250.361 138.148 250.134C139.077 249.907 139.576 249.478 139.643 248.846C139.778 247.581 138.086 246.76 134.566 246.384C131.046 246.008 129.218 246.453 129.083 247.718C129.016 248.35 129.412 248.875 130.273 249.293C131.133 249.711 132.428 250.012 134.159 250.197ZM150.307 238.055L154.853 238.541L154.714 239.847L144.118 238.716L144.258 237.409L148.804 237.895L149.026 235.818L150.529 235.979L150.307 238.055ZM157.407 243.955L159.966 244.228L159.827 245.535L157.267 245.261L156.388 253.494L154.956 253.341L156.701 237L158.133 237.153L157.407 243.955ZM149.012 249.846L154.202 250.401L154.062 251.707L142.518 250.474L142.658 249.168L147.58 249.693L147.824 247.402C146.739 247.166 145.885 246.694 145.26 245.988C144.636 245.282 144.373 244.463 144.472 243.532C144.545 242.852 144.8 242.27 145.238 241.786C145.689 241.291 146.264 240.936 146.963 240.721C147.663 240.494 148.425 240.425 149.248 240.513C150.083 240.602 150.819 240.831 151.456 241.201C152.105 241.56 152.592 242.028 152.917 242.606C153.254 243.173 153.387 243.797 153.314 244.477C153.216 245.396 152.787 246.134 152.028 246.693C151.28 247.253 150.356 247.54 149.256 247.555L149.012 249.846ZM145.922 243.687C145.85 244.367 146.059 244.945 146.552 245.42C147.045 245.883 147.74 246.162 148.635 246.258C149.541 246.355 150.285 246.229 150.865 245.881C151.459 245.522 151.792 245.002 151.864 244.322C151.937 243.642 151.721 243.07 151.215 242.605C150.721 242.142 150.021 241.862 149.114 241.766C148.208 241.669 147.464 241.794 146.884 242.143C146.315 242.492 145.995 243.007 145.922 243.687Z" fill="#2F2D2B"/>
<rect x="12.0882" y="273.704" width="78.5819" height="46.1273" transform="rotate(-14.027 12.0882 273.704)" fill="white" stroke="#2F2D2B" stroke-width="1.6"/>
<rect x="9.15755" y="261.973" width="78.5819" height="11.7636" transform="rotate(-14.027 9.15755 261.973)" fill="white" stroke="#2F2D2B" stroke-width="1.6"/>
<rect x="2.75921" y="251.296" width="78.5819" height="11.7636" transform="rotate(-30.9636 2.75921 251.296)" fill="#2F2D2B" stroke="#2F2D2B" stroke-width="1.6"/>
<path d="M28.0978 257.072L12.5067 273.43L25.4719 270.191L41.6804 253.679L28.0978 257.072Z" fill="#2F2D2B"/>
<path d="M55.5724 250.209L39.9814 266.566L52.9465 263.327L69.155 246.815L55.5724 250.209Z" fill="#2F2D2B"/>
<mask id="mask0_108_307" style="mask-type:alpha" maskUnits="userSpaceOnUse" x="8" y="241" width="82" height="34">
<rect x="9.15755" y="261.973" width="78.5819" height="11.7636" transform="rotate(-14.027 9.15755 261.973)" fill="#FDFDF4" stroke="#2F2D2B" stroke-width="1.6"/>
</mask>
<g mask="url(#mask0_108_307)">
<path d="M82.7375 243.422L67.1464 259.78L80.1116 256.541L96.32 240.029L82.7375 243.422Z" fill="#2F2D2B"/>
</g>
<path d="M100.128 533.891L89.599 595.838L80.4966 594L94.8261 532.82L100.128 533.891Z" fill="#C5CCC7" stroke="#2F2D2B" stroke-width="1.6"/>
<path d="M103.85 501.79C107.638 502.555 110.703 505.484 112.592 509.517C114.479 513.544 115.141 518.579 114.179 523.345C112.267 532.816 104.707 537.522 96.9519 535.956C89.1971 534.39 84.0558 527.12 85.9679 517.65C86.9303 512.883 89.4942 508.5 92.7955 505.52C96.1012 502.536 100.062 501.025 103.85 501.79Z" fill="#C5CCC7" stroke="#2F2D2B" stroke-width="1.6"/>
<path d="M127.84 507.873L109.278 599.811L104.906 598.928L125.225 507.345L127.84 507.873Z" fill="#C5CCC7" stroke="#2F2D2B" stroke-width="1.6"/>
<path d="M130.599 508.43L112.037 600.368L116.41 601.251L133.214 508.958L130.599 508.43Z" fill="#C5CCC7" stroke="#2F2D2B" stroke-width="1.6"/>
<rect x="331.872" y="306.752" width="9.68058" height="20.2091" transform="rotate(18.6438 331.872 306.752)" fill="#F9F7D4" stroke="#2F2D2B" stroke-width="1.6"/>
<rect x="266.758" y="284.783" width="9.68058" height="20.2091" transform="rotate(18.6438 266.758 284.783)" fill="#F9F7D4" stroke="#2F2D2B" stroke-width="1.6"/>
<rect x="277.189" y="289.874" width="53.0763" height="16.8173" transform="rotate(18.6438 277.189 289.874)" fill="#F9F7D4" stroke="#2F2D2B" stroke-width="1.6"/>
<rect x="324.892" y="296.857" width="15.3209" height="34.4979" transform="rotate(18.6438 324.892 296.857)" fill="#F9F7D4" stroke="#2F2D2B" stroke-width="1.6"/>
<rect x="272.961" y="279.336" width="15.3209" height="34.4979" transform="rotate(18.6438 272.961 279.336)" fill="#F9F7D4" stroke="#2F2D2B" stroke-width="1.6"/>
<path d="M247.408 479.459L252.638 480.226L265.621 488.11L265.515 493.615L255.187 490.037L264.894 514.955L258.285 515.756L248.929 502.464L241.549 516.905L234.892 517.018L241.045 491.007L231.402 497.037L230.49 490.525L242.269 480.936L247.344 479.459L247.344 479.451L247.365 479.454L247.408 479.442L247.408 479.459Z" fill="#2F2D2B"/>
<path d="M247.408 479.459L247.051 479.47C247.056 479.643 247.185 479.788 247.356 479.813L247.408 479.459ZM252.638 480.226L252.824 479.92C252.783 479.895 252.738 479.879 252.69 479.872L252.638 480.226ZM265.621 488.11L265.979 488.117C265.982 487.989 265.916 487.87 265.807 487.804L265.621 488.11ZM265.515 493.615L265.398 493.953C265.507 493.991 265.626 493.974 265.72 493.909C265.814 493.843 265.871 493.736 265.873 493.622L265.515 493.615ZM255.187 490.037L255.304 489.699C255.173 489.653 255.026 489.688 254.929 489.789C254.833 489.889 254.803 490.037 254.854 490.167L255.187 490.037ZM264.894 514.955L264.937 515.31C265.047 515.297 265.144 515.234 265.201 515.139C265.258 515.044 265.267 514.928 265.227 514.825L264.894 514.955ZM258.285 515.756L257.992 515.962C258.068 516.07 258.197 516.127 258.328 516.111L258.285 515.756ZM248.929 502.464L249.221 502.258C249.149 502.155 249.029 502.098 248.904 502.107C248.778 502.116 248.667 502.189 248.61 502.301L248.929 502.464ZM241.549 516.905L241.555 517.263C241.687 517.26 241.807 517.185 241.868 517.068L241.549 516.905ZM234.892 517.018L234.544 516.936C234.518 517.043 234.544 517.157 234.613 517.243C234.683 517.329 234.788 517.378 234.898 517.376L234.892 517.018ZM241.045 491.007L241.394 491.089C241.427 490.948 241.372 490.801 241.254 490.716C241.136 490.631 240.979 490.626 240.856 490.703L241.045 491.007ZM231.402 497.037L231.047 497.086C231.064 497.206 231.14 497.31 231.25 497.361C231.36 497.412 231.488 497.404 231.591 497.34L231.402 497.037ZM230.49 490.525L230.264 490.248C230.167 490.327 230.118 490.451 230.136 490.575L230.49 490.525ZM242.269 480.936L242.17 480.593C242.124 480.606 242.081 480.628 242.044 480.659L242.269 480.936ZM247.344 479.459L247.444 479.803C247.601 479.758 247.707 479.612 247.702 479.449L247.344 479.459ZM247.344 479.451L247.394 479.096C247.289 479.082 247.184 479.114 247.105 479.184C247.027 479.254 246.983 479.356 246.986 479.461L247.344 479.451ZM247.365 479.454L247.315 479.808C247.364 479.815 247.414 479.811 247.461 479.798L247.365 479.454ZM247.408 479.442L247.765 479.432C247.762 479.322 247.709 479.219 247.62 479.154C247.532 479.088 247.418 479.068 247.312 479.097L247.408 479.442ZM247.408 479.459L247.356 479.813L252.586 480.58L252.638 480.226L252.69 479.872L247.46 479.105L247.408 479.459ZM252.638 480.226L252.453 480.532L265.436 488.416L265.621 488.11L265.807 487.804L252.824 479.92L252.638 480.226ZM265.621 488.11L265.264 488.103L265.158 493.608L265.515 493.615L265.873 493.622L265.979 488.117L265.621 488.11ZM265.515 493.615L265.633 493.277L255.304 489.699L255.187 490.037L255.07 490.375L265.398 493.953L265.515 493.615ZM255.187 490.037L254.854 490.167L264.56 515.085L264.894 514.955L265.227 514.825L255.521 489.907L255.187 490.037ZM264.894 514.955L264.851 514.6L258.242 515.401L258.285 515.756L258.328 516.111L264.937 515.31L264.894 514.955ZM258.285 515.756L258.577 515.55L249.221 502.258L248.929 502.464L248.636 502.67L257.992 515.962L258.285 515.756ZM248.929 502.464L248.61 502.301L241.23 516.742L241.549 516.905L241.868 517.068L249.247 502.627L248.929 502.464ZM241.549 516.905L241.543 516.547L234.886 516.661L234.892 517.018L234.898 517.376L241.555 517.263L241.549 516.905ZM234.892 517.018L235.24 517.101L241.394 491.089L241.045 491.007L240.697 490.924L234.544 516.936L234.892 517.018ZM241.045 491.007L240.856 490.703L231.212 496.733L231.402 497.037L231.591 497.34L241.235 491.31L241.045 491.007ZM231.402 497.037L231.756 496.987L230.844 490.475L230.49 490.525L230.136 490.575L231.047 497.086L231.402 497.037ZM230.49 490.525L230.716 490.803L242.495 481.214L242.269 480.936L242.044 480.659L230.264 490.248L230.49 490.525ZM242.269 480.936L242.369 481.28L247.444 479.803L247.344 479.459L247.244 479.116L242.17 480.593L242.269 480.936ZM247.344 479.459L247.702 479.449L247.702 479.44L247.344 479.451L246.986 479.461L246.987 479.47L247.344 479.459ZM247.344 479.451L247.294 479.805L247.315 479.808L247.365 479.454L247.415 479.099L247.394 479.096L247.344 479.451ZM247.365 479.454L247.461 479.798L247.504 479.786L247.408 479.442L247.312 479.097L247.269 479.109L247.365 479.454ZM247.408 479.442L247.05 479.452L247.051 479.47L247.408 479.459L247.766 479.449L247.765 479.432L247.408 479.442Z" fill="#2F2D2B"/>
<circle cx="246.999" cy="474.538" r="7.87133" transform="rotate(-7.96899 246.999 474.538)" fill="#2F2D2B" stroke="#2F2D2B" stroke-width="0.715575"/>
<path d="M281.803 476.368L287.033 477.135L300.016 485.018L299.91 490.524L289.582 486.946L299.288 511.864L292.679 512.665L283.323 499.373L275.943 513.814L269.287 513.927L275.44 487.915L265.796 493.945L264.885 487.434L276.664 477.845L281.739 476.368L281.739 476.359L281.76 476.362L281.802 476.35L281.803 476.368Z" fill="#2F2D2B"/>
<path d="M281.803 476.368L281.445 476.378C281.45 476.552 281.579 476.697 281.751 476.722L281.803 476.368ZM287.033 477.135L287.219 476.829C287.178 476.804 287.132 476.788 287.085 476.781L287.033 477.135ZM300.016 485.018L300.374 485.025C300.376 484.898 300.311 484.779 300.202 484.713L300.016 485.018ZM299.91 490.524L299.793 490.862C299.901 490.899 300.021 490.883 300.115 490.817C300.209 490.752 300.265 490.645 300.268 490.531L299.91 490.524ZM289.582 486.946L289.699 486.607C289.567 486.562 289.421 486.597 289.324 486.697C289.227 486.798 289.198 486.945 289.248 487.075L289.582 486.946ZM299.288 511.864L299.331 512.219C299.441 512.206 299.538 512.143 299.595 512.048C299.652 511.953 299.662 511.837 299.622 511.734L299.288 511.864ZM292.679 512.665L292.387 512.871C292.463 512.979 292.591 513.036 292.722 513.02L292.679 512.665ZM283.323 499.373L283.616 499.167C283.544 499.064 283.423 499.007 283.298 499.016C283.173 499.025 283.062 499.098 283.005 499.21L283.323 499.373ZM275.943 513.814L275.95 514.171C276.082 514.169 276.202 514.094 276.262 513.976L275.943 513.814ZM269.287 513.927L268.938 513.845C268.913 513.952 268.939 514.065 269.008 514.151C269.077 514.237 269.182 514.287 269.293 514.285L269.287 513.927ZM275.44 487.915L275.788 487.998C275.822 487.857 275.766 487.709 275.648 487.625C275.531 487.54 275.373 487.535 275.25 487.612L275.44 487.915ZM265.796 493.945L265.442 493.995C265.459 494.115 265.535 494.218 265.645 494.27C265.755 494.321 265.883 494.313 265.986 494.249L265.796 493.945ZM264.885 487.434L264.659 487.156C264.562 487.235 264.513 487.359 264.53 487.483L264.885 487.434ZM276.664 477.845L276.564 477.501C276.518 477.515 276.475 477.537 276.438 477.567L276.664 477.845ZM281.739 476.368L281.839 476.712C281.995 476.666 282.101 476.521 282.096 476.358L281.739 476.368ZM281.739 476.359L281.788 476.005C281.684 475.99 281.578 476.022 281.5 476.093C281.421 476.163 281.378 476.264 281.381 476.37L281.739 476.359ZM281.76 476.362L281.71 476.717C281.759 476.723 281.808 476.72 281.856 476.707L281.76 476.362ZM281.802 476.35L282.16 476.34C282.157 476.23 282.103 476.128 282.015 476.062C281.926 475.997 281.812 475.976 281.706 476.006L281.802 476.35ZM281.803 476.368L281.751 476.722L286.981 477.489L287.033 477.135L287.085 476.781L281.855 476.014L281.803 476.368ZM287.033 477.135L286.847 477.441L299.83 485.324L300.016 485.018L300.202 484.713L287.219 476.829L287.033 477.135ZM300.016 485.018L299.658 485.012L299.552 490.517L299.91 490.524L300.268 490.531L300.374 485.025L300.016 485.018ZM299.91 490.524L300.027 490.186L289.699 486.607L289.582 486.946L289.465 487.284L299.793 490.862L299.91 490.524ZM289.582 486.946L289.248 487.075L298.955 511.994L299.288 511.864L299.622 511.734L289.915 486.816L289.582 486.946ZM299.288 511.864L299.245 511.509L292.636 512.31L292.679 512.665L292.722 513.02L299.331 512.219L299.288 511.864ZM292.679 512.665L292.972 512.459L283.616 499.167L283.323 499.373L283.031 499.579L292.387 512.871L292.679 512.665ZM283.323 499.373L283.005 499.21L275.625 513.651L275.943 513.814L276.262 513.976L283.642 499.535L283.323 499.373ZM275.943 513.814L275.937 513.456L269.28 513.569L269.287 513.927L269.293 514.285L275.95 514.171L275.943 513.814ZM269.287 513.927L269.635 514.009L275.788 487.998L275.44 487.915L275.092 487.833L268.938 513.845L269.287 513.927ZM275.44 487.915L275.25 487.612L265.606 493.642L265.796 493.945L265.986 494.249L275.63 488.219L275.44 487.915ZM265.796 493.945L266.15 493.896L265.239 487.384L264.885 487.434L264.53 487.483L265.442 493.995L265.796 493.945ZM264.885 487.434L265.11 487.711L276.89 478.122L276.664 477.845L276.438 477.567L264.659 487.156L264.885 487.434ZM276.664 477.845L276.764 478.188L281.839 476.712L281.739 476.368L281.639 476.025L276.564 477.501L276.664 477.845ZM281.739 476.368L282.096 476.358L282.096 476.349L281.739 476.359L281.381 476.37L281.381 476.378L281.739 476.368ZM281.739 476.359L281.689 476.714L281.71 476.717L281.76 476.362L281.809 476.008L281.788 476.005L281.739 476.359ZM281.76 476.362L281.856 476.707L281.898 476.695L281.802 476.35L281.706 476.006L281.664 476.018L281.76 476.362ZM281.802 476.35L281.445 476.361L281.445 476.378L281.803 476.368L282.161 476.358L282.16 476.34L281.802 476.35Z" fill="#2F2D2B"/>
<path d="M315.927 473.301L321.157 474.068L334.14 481.951L334.034 487.457L323.706 483.878L333.413 508.797L326.804 509.598L317.448 496.305L310.067 510.747L303.411 510.86L309.564 484.848L299.921 490.878L299.009 484.367L310.789 474.778L315.863 473.301L315.863 473.292L315.884 473.295L315.927 473.283L315.927 473.301Z" fill="#2F2D2B"/>
<path d="M315.927 473.301L315.57 473.311C315.575 473.485 315.704 473.63 315.875 473.655L315.927 473.301ZM321.157 474.068L321.343 473.762C321.302 473.737 321.257 473.721 321.209 473.714L321.157 474.068ZM334.14 481.951L334.498 481.958C334.501 481.831 334.435 481.712 334.326 481.645L334.14 481.951ZM334.034 487.457L333.917 487.795C334.026 487.832 334.145 487.816 334.239 487.75C334.333 487.685 334.39 487.578 334.392 487.464L334.034 487.457ZM323.706 483.878L323.823 483.54C323.692 483.495 323.545 483.53 323.448 483.63C323.352 483.731 323.322 483.878 323.373 484.008L323.706 483.878ZM333.413 508.797L333.456 509.152C333.566 509.139 333.663 509.075 333.72 508.981C333.777 508.886 333.786 508.77 333.746 508.667L333.413 508.797ZM326.804 509.598L326.511 509.804C326.587 509.911 326.716 509.969 326.847 509.953L326.804 509.598ZM317.448 496.305L317.74 496.1C317.668 495.997 317.548 495.94 317.423 495.949C317.298 495.957 317.186 496.031 317.129 496.143L317.448 496.305ZM310.067 510.747L310.073 511.104C310.205 511.102 310.325 511.027 310.386 510.909L310.067 510.747ZM303.411 510.86L303.063 510.777C303.037 510.885 303.063 510.998 303.132 511.084C303.202 511.17 303.307 511.219 303.417 511.218L303.411 510.86ZM309.564 484.848L309.913 484.931C309.946 484.789 309.891 484.642 309.773 484.558C309.655 484.473 309.498 484.468 309.375 484.545L309.564 484.848ZM299.921 490.878L299.566 490.928C299.583 491.048 299.66 491.151 299.769 491.203C299.879 491.254 300.008 491.246 300.11 491.182L299.921 490.878ZM299.009 484.367L298.783 484.089C298.686 484.168 298.637 484.292 298.655 484.416L299.009 484.367ZM310.789 474.778L310.689 474.434C310.643 474.447 310.6 474.47 310.563 474.5L310.789 474.778ZM315.863 473.301L315.963 473.645C316.12 473.599 316.226 473.454 316.221 473.291L315.863 473.301ZM315.863 473.292L315.913 472.938C315.808 472.923 315.703 472.955 315.624 473.026C315.546 473.096 315.502 473.197 315.505 473.302L315.863 473.292ZM315.884 473.295L315.835 473.649C315.883 473.656 315.933 473.653 315.98 473.64L315.884 473.295ZM315.927 473.283L316.285 473.273C316.281 473.163 316.228 473.061 316.139 472.995C316.051 472.93 315.937 472.909 315.831 472.939L315.927 473.283ZM315.927 473.301L315.875 473.655L321.106 474.422L321.157 474.068L321.209 473.714L315.979 472.947L315.927 473.301ZM321.157 474.068L320.972 474.373L333.955 482.257L334.14 481.951L334.326 481.645L321.343 473.762L321.157 474.068ZM334.14 481.951L333.783 481.944L333.677 487.45L334.034 487.457L334.392 487.464L334.498 481.958L334.14 481.951ZM334.034 487.457L334.152 487.119L323.823 483.54L323.706 483.878L323.589 484.216L333.917 487.795L334.034 487.457ZM323.706 483.878L323.373 484.008L333.079 508.927L333.413 508.797L333.746 508.667L324.04 483.749L323.706 483.878ZM333.413 508.797L333.37 508.442L326.761 509.243L326.804 509.598L326.847 509.953L333.456 509.152L333.413 508.797ZM326.804 509.598L327.096 509.392L317.74 496.1L317.448 496.305L317.155 496.511L326.511 509.804L326.804 509.598ZM317.448 496.305L317.129 496.143L309.748 510.584L310.067 510.747L310.386 510.909L317.766 496.468L317.448 496.305ZM310.067 510.747L310.061 510.389L303.405 510.502L303.411 510.86L303.417 511.218L310.073 511.104L310.067 510.747ZM303.411 510.86L303.759 510.942L309.913 484.931L309.564 484.848L309.216 484.766L303.063 510.777L303.411 510.86ZM309.564 484.848L309.375 484.545L299.731 490.575L299.921 490.878L300.11 491.182L309.754 485.152L309.564 484.848ZM299.921 490.878L300.275 490.829L299.363 484.317L299.009 484.367L298.655 484.416L299.566 490.928L299.921 490.878ZM299.009 484.367L299.235 484.644L311.014 475.055L310.789 474.778L310.563 474.5L298.783 484.089L299.009 484.367ZM310.789 474.778L310.889 475.121L315.963 473.645L315.863 473.301L315.763 472.958L310.689 474.434L310.789 474.778ZM315.863 473.301L316.221 473.291L316.221 473.282L315.863 473.292L315.505 473.302L315.506 473.311L315.863 473.301ZM315.863 473.292L315.813 473.647L315.835 473.649L315.884 473.295L315.934 472.941L315.913 472.938L315.863 473.292ZM315.884 473.295L315.98 473.64L316.023 473.628L315.927 473.283L315.831 472.939L315.788 472.951L315.884 473.295ZM315.927 473.283L315.569 473.293L315.57 473.311L315.927 473.301L316.285 473.291L316.285 473.273L315.927 473.283Z" fill="#2F2D2B"/>
<path d="M350.632 470.182L355.862 470.949L368.845 478.832L368.739 484.337L358.411 480.759L368.117 505.678L361.508 506.479L352.152 493.186L344.773 507.627L338.116 507.741L344.269 481.729L334.625 487.759L333.714 481.247L345.493 471.659L350.568 470.182L350.568 470.173L350.589 470.176L350.631 470.164L350.632 470.182Z" fill="#2F2D2B"/>
<path d="M350.632 470.182L350.274 470.192C350.279 470.366 350.408 470.511 350.58 470.536L350.632 470.182ZM355.862 470.949L356.048 470.643C356.007 470.618 355.961 470.601 355.914 470.595L355.862 470.949ZM368.845 478.832L369.203 478.839C369.205 478.712 369.14 478.592 369.031 478.526L368.845 478.832ZM368.739 484.337L368.622 484.676C368.73 484.713 368.85 484.696 368.944 484.631C369.038 484.565 369.095 484.459 369.097 484.344L368.739 484.337ZM358.411 480.759L358.528 480.421C358.396 480.375 358.25 480.411 358.153 480.511C358.056 480.612 358.027 480.759 358.077 480.889L358.411 480.759ZM368.117 505.678L368.16 506.033C368.27 506.02 368.368 505.956 368.424 505.861C368.481 505.767 368.491 505.651 368.451 505.548L368.117 505.678ZM361.508 506.479L361.216 506.684C361.292 506.792 361.421 506.85 361.551 506.834L361.508 506.479ZM352.152 493.186L352.445 492.98C352.373 492.878 352.252 492.821 352.127 492.829C352.002 492.838 351.891 492.912 351.834 493.024L352.152 493.186ZM344.773 507.627L344.779 507.985C344.911 507.983 345.031 507.908 345.091 507.79L344.773 507.627ZM338.116 507.741L337.767 507.658C337.742 507.766 337.768 507.879 337.837 507.965C337.906 508.051 338.011 508.1 338.122 508.098L338.116 507.741ZM344.269 481.729L344.617 481.812C344.651 481.67 344.595 481.523 344.478 481.438C344.36 481.354 344.202 481.349 344.079 481.426L344.269 481.729ZM334.625 487.759L334.271 487.809C334.288 487.929 334.364 488.032 334.474 488.083C334.584 488.135 334.712 488.127 334.815 488.063L334.625 487.759ZM333.714 481.247L333.488 480.97C333.391 481.049 333.342 481.173 333.359 481.297L333.714 481.247ZM345.493 471.659L345.393 471.315C345.347 471.328 345.304 471.351 345.267 471.381L345.493 471.659ZM350.568 470.182L350.668 470.525C350.824 470.48 350.93 470.335 350.926 470.172L350.568 470.182ZM350.568 470.173L350.617 469.819C350.513 469.804 350.408 469.836 350.329 469.906C350.251 469.977 350.207 470.078 350.21 470.183L350.568 470.173ZM350.589 470.176L350.539 470.53C350.588 470.537 350.637 470.534 350.685 470.521L350.589 470.176ZM350.631 470.164L350.989 470.154C350.986 470.044 350.932 469.941 350.844 469.876C350.755 469.811 350.642 469.79 350.535 469.819L350.631 470.164ZM350.632 470.182L350.58 470.536L355.81 471.303L355.862 470.949L355.914 470.595L350.684 469.828L350.632 470.182ZM355.862 470.949L355.676 471.254L368.659 479.138L368.845 478.832L369.031 478.526L356.048 470.643L355.862 470.949ZM368.845 478.832L368.487 478.825L368.381 484.331L368.739 484.337L369.097 484.344L369.203 478.839L368.845 478.832ZM368.739 484.337L368.856 483.999L358.528 480.421L358.411 480.759L358.294 481.097L368.622 484.676L368.739 484.337ZM358.411 480.759L358.077 480.889L367.784 505.807L368.117 505.678L368.451 505.548L358.744 480.629L358.411 480.759ZM368.117 505.678L368.074 505.322L361.465 506.123L361.508 506.479L361.551 506.834L368.16 506.033L368.117 505.678ZM361.508 506.479L361.801 506.273L352.445 492.98L352.152 493.186L351.86 493.392L361.216 506.684L361.508 506.479ZM352.152 493.186L351.834 493.024L344.454 507.464L344.773 507.627L345.091 507.79L352.471 493.349L352.152 493.186ZM344.773 507.627L344.766 507.269L338.11 507.383L338.116 507.741L338.122 508.098L344.779 507.985L344.773 507.627ZM338.116 507.741L338.464 507.823L344.617 481.812L344.269 481.729L343.921 481.647L337.767 507.658L338.116 507.741ZM344.269 481.729L344.079 481.426L334.436 487.456L334.625 487.759L334.815 488.063L344.459 482.033L344.269 481.729ZM334.625 487.759L334.98 487.71L334.068 481.198L333.714 481.247L333.359 481.297L334.271 487.809L334.625 487.759ZM333.714 481.247L333.94 481.525L345.719 471.936L345.493 471.659L345.267 471.381L333.488 480.97L333.714 481.247ZM345.493 471.659L345.593 472.002L350.668 470.525L350.568 470.182L350.468 469.838L345.393 471.315L345.493 471.659ZM350.568 470.182L350.926 470.172L350.925 470.163L350.568 470.173L350.21 470.183L350.21 470.192L350.568 470.182ZM350.568 470.173L350.518 470.527L350.539 470.53L350.589 470.176L350.638 469.822L350.617 469.819L350.568 470.173ZM350.589 470.176L350.685 470.521L350.727 470.509L350.631 470.164L350.535 469.819L350.493 469.831L350.589 470.176ZM350.631 470.164L350.274 470.174L350.274 470.192L350.632 470.182L350.99 470.172L350.989 470.154L350.631 470.164Z" fill="#2F2D2B"/>
<circle cx="281.393" cy="471.447" r="7.87133" transform="rotate(-7.96899 281.393 471.447)" fill="#2F2D2B" stroke="#2F2D2B" stroke-width="0.715575"/>
<circle cx="315.518" cy="468.379" r="7.87133" transform="rotate(-7.96899 315.518 468.379)" fill="#2F2D2B" stroke="#2F2D2B" stroke-width="0.715575"/>
<circle cx="350.222" cy="465.26" r="7.87133" transform="rotate(-7.96899 350.222 465.26)" fill="#2F2D2B" stroke="#2F2D2B" stroke-width="0.715575"/>
</g>
<circle cx="173" cy="4" r="4" fill="#A1CBAF"/>
<circle cx="185" cy="4" r="4" fill="#D7D7D7"/>
<defs>
<clipPath id="clip0_108_307">
<rect width="358" height="600" fill="white" transform="translate(0 20)"/>
</clipPath>
</defs>
</svg>
