<svg width="120" height="115" viewBox="0 0 120 115" fill="none" xmlns="http://www.w3.org/2000/svg">
<path d="M109.866 40.1309C115.049 40.1309 119.25 44.3324 119.25 49.5146C119.25 54.6967 115.049 58.8975 109.866 58.8975H89.8167V40.1309H109.866Z" stroke="#2F2D2B" stroke-width="1.5"/>
<path d="M53.7793 87.2952C68.5845 87.2952 81.9617 88.8764 91.6152 91.4182C96.4476 92.6906 100.305 94.1926 102.936 95.8303C105.606 97.4928 106.809 99.1601 106.809 100.705C106.809 102.251 105.606 103.918 102.936 105.58C100.305 107.218 96.4476 108.721 91.6152 109.993C81.9617 112.535 68.5844 114.115 53.7793 114.115C38.9739 114.115 25.596 112.535 15.9424 109.993C11.1102 108.721 7.25387 107.218 4.62305 105.58C1.95237 103.918 0.75 102.251 0.75 100.705C0.750084 99.1601 1.95246 97.4928 4.62305 95.8303C7.25383 94.1927 11.1103 92.6905 15.9424 91.4182C25.596 88.8764 38.9739 87.2952 53.7793 87.2952Z" fill="#FDFDF4" stroke="#2F2D2B" stroke-width="1.5"/>
<path d="M86.3217 98.5808C89.7578 99.4802 91.7334 100.533 91.7334 101.658C91.7334 104.966 74.6605 107.647 53.6 107.647C32.5396 107.647 15.4667 104.966 15.4667 101.658C15.4667 100.533 17.4423 99.4802 20.8783 98.5808" stroke="#2F2D2B" stroke-width="1.5" stroke-linecap="round"/>
<path d="M100.782 34.5706V70.5774C100.782 86.8023 87.6295 99.9551 71.4045 99.9553H36.1536C19.9286 99.9551 6.77578 86.8023 6.77563 70.5774V34.5706H100.782Z" fill="#FDFDF4" stroke="#2F2D2B" stroke-width="1.5"/>
<path d="M32.7645 54.7568C38.3844 54.7569 43.5481 56.117 47.3173 57.4854C49.1991 58.1685 50.7264 58.8516 51.7811 59.3623C52.3081 59.6175 52.717 59.8293 52.9921 59.9766C53.1295 60.0501 53.2337 60.108 53.3026 60.1465C53.3371 60.1657 53.3632 60.18 53.3798 60.1895C53.3876 60.1939 53.3936 60.1971 53.3973 60.1992C53.3991 60.2002 53.4005 60.2017 53.4012 60.2021H53.4022L53.4423 60.2256L53.4862 60.2441H53.4872L53.495 60.248C53.5006 60.2504 53.5091 60.2535 53.5194 60.2578C53.5402 60.2665 53.5708 60.2789 53.6102 60.2949C53.689 60.327 53.8041 60.3742 53.954 60.4326C54.2542 60.5495 54.6936 60.7143 55.2538 60.9102C56.3738 61.3017 57.9811 61.8167 59.9384 62.3125C63.8481 63.3028 69.1811 64.2243 74.8329 63.9268C80.4835 63.6292 85.8127 62.1449 89.7177 60.7432C91.6728 60.0413 93.2782 59.3578 94.3964 58.8486C94.6404 58.7375 94.8611 58.633 95.0575 58.54V69.9746C95.0575 83.8703 83.793 95.1348 69.8973 95.1348H37.66C23.7644 95.1347 12.4999 83.8702 12.4999 69.9746V57.8779C12.7732 57.791 13.1535 57.6735 13.6298 57.5352C14.6896 57.2273 16.2242 56.8152 18.1151 56.4033C21.9 55.5789 27.0982 54.7568 32.7645 54.7568Z" fill="#A1CBAF" stroke="#2F2D2B" stroke-width="1.5"/>
<path d="M54.0308 1.05584C53.9437 1.00592 53.8565 0.955997 53.7694 0.906076C53.3775 1.25059 53.0258 1.62338 52.6917 2.01839C49.5782 5.57857 48.5437 11.6641 51.2964 16.3973C51.3896 16.5672 51.4781 16.7345 51.5624 16.8995C52.9303 19.5872 53.8991 22.53 53.8607 26.5963C53.8523 27.0791 53.8288 27.5786 53.7727 28.07C53.8576 28.1237 53.9425 28.1774 54.0274 28.2311C54.4565 27.9185 54.8442 27.5626 55.2112 27.176C58.2942 24.0577 59.2368 18.4379 56.927 14.1554C56.7961 13.8995 56.655 13.6444 56.5037 13.3909C54.7455 10.5367 53.7487 7.00611 53.9147 2.51109C53.9342 2.03354 53.9673 1.5415 54.0308 1.05584Z" fill="#2F2D2B"/>
<path d="M73.6515 34.4233V49.4875" stroke="#2F2D2B" stroke-width="1.5"/>
<mask id="path-8-outside-1_407_3040" maskUnits="userSpaceOnUse" x="62.0515" y="47.5142" width="23" height="24" fill="black">
<rect fill="white" x="62.0515" y="47.5142" width="23" height="24"/>
<path d="M83.2517 69.7808H64.0515V54.8472L68.4519 49.5142H78.8513L83.2517 54.8472V69.7808Z"/>
</mask>
<path d="M83.2517 69.7808H64.0515V54.8472L68.4519 49.5142H78.8513L83.2517 54.8472V69.7808Z" fill="#F9F7D4"/>
<path d="M83.2517 69.7808V71.2808H84.7517V69.7808H83.2517ZM64.0515 69.7808H62.5515V71.2808H64.0515V69.7808ZM64.0515 54.8472L62.8945 53.8925L62.5515 54.3082V54.8472H64.0515ZM68.4519 49.5142V48.0142H67.7449L67.2949 48.5595L68.4519 49.5142ZM78.8513 49.5142L80.0083 48.5595L79.5583 48.0142H78.8513V49.5142ZM83.2517 54.8472H84.7517V54.3082L84.4087 53.8925L83.2517 54.8472ZM83.2517 69.7808V68.2808H64.0515V69.7808V71.2808H83.2517V69.7808ZM64.0515 69.7808H65.5515V54.8472H64.0515H62.5515V69.7808H64.0515ZM64.0515 54.8472L65.2085 55.8018L69.6089 50.4688L68.4519 49.5142L67.2949 48.5595L62.8945 53.8925L64.0515 54.8472ZM68.4519 49.5142V51.0142H78.8513V49.5142V48.0142H68.4519V49.5142ZM78.8513 49.5142L77.6943 50.4688L82.0947 55.8018L83.2517 54.8472L84.4087 53.8925L80.0083 48.5595L78.8513 49.5142ZM83.2517 54.8472H81.7517V69.7808H83.2517H84.7517V54.8472H83.2517Z" fill="#2F2D2B" mask="url(#path-8-outside-1_407_3040)"/>
</svg>
