<svg width="5" height="8" viewBox="0 0 5 8" fill="none" xmlns="http://www.w3.org/2000/svg">
<path fill-rule="evenodd" clip-rule="evenodd" d="M4.82921 3.58755C4.93857 3.69694 5 3.84528 5 3.99996C5 4.15464 4.93857 4.30299 4.82921 4.41238L1.52929 7.7123C1.47548 7.76801 1.41111 7.81245 1.33994 7.84302C1.26877 7.87359 1.19223 7.88969 1.11478 7.89036C1.03732 7.89103 0.960507 7.87627 0.888818 7.84694C0.817129 7.81761 0.751998 7.7743 0.697227 7.71953C0.642457 7.66476 0.599142 7.59963 0.569811 7.52794C0.540481 7.45625 0.525722 7.37943 0.526395 7.30198C0.527068 7.22452 0.54316 7.14798 0.573732 7.07681C0.604304 7.00564 0.648743 6.94127 0.704457 6.88746L3.59196 3.99996L0.704457 1.11246C0.598198 1.00244 0.539402 0.855093 0.540731 0.702145C0.54206 0.549197 0.603408 0.40289 0.711563 0.294735C0.819718 0.18658 0.966025 0.125231 1.11897 0.123902C1.27192 0.122573 1.41927 0.18137 1.52929 0.287629L4.82921 3.58755Z" fill="#2F2D2B"/>
</svg>
