<svg width="32" height="32" viewBox="0 0 32 32" fill="none" xmlns="http://www.w3.org/2000/svg">
<rect width="32" height="32" rx="16" fill="#C5CCC7"/>
<path d="M24.8951 9.28615C25.3858 7.92883 24.0705 6.61353 22.7131 7.10535L6.12425 13.1048C4.76239 13.5978 4.59769 15.456 5.85052 16.1818L11.1458 19.2474L15.8743 14.519C16.0885 14.312 16.3754 14.1976 16.6732 14.2002C16.971 14.2027 17.2559 14.3222 17.4665 14.5328C17.6771 14.7434 17.7966 15.0283 17.7991 15.3261C17.8017 15.6239 17.6872 15.9108 17.4803 16.125L12.7519 20.8535L15.8186 26.1488C16.5433 27.4016 18.4015 27.2358 18.8945 25.875L24.8951 9.28615Z" fill="#7C7C7C"/>
</svg>
