<svg width="32" height="32" viewBox="0 0 32 32" fill="none" xmlns="http://www.w3.org/2000/svg">
<path d="M17.6 4.03333C17.1384 3.68714 16.577 3.5 16 3.5C15.423 3.5 14.8616 3.68714 14.4 4.03333L5.06667 11.0333C4.73548 11.2817 4.46667 11.6038 4.28153 11.9741C4.09639 12.3444 4 12.7527 4 13.1667V25.8333C4 26.5406 4.28095 27.2189 4.78105 27.719C5.28115 28.219 5.95942 28.5 6.66667 28.5H11.8667C12.2557 28.5 12.6287 28.3455 12.9038 28.0704C13.1788 27.7954 13.3333 27.4223 13.3333 27.0333V20.5C13.3333 19.7928 13.6143 19.1145 14.1144 18.6144C14.6145 18.1143 15.2928 17.8333 16 17.8333C16.7072 17.8333 17.3855 18.1143 17.8856 18.6144C18.3857 19.1145 18.6667 19.7928 18.6667 20.5V27.0333C18.6667 27.4223 18.8212 27.7954 19.0962 28.0704C19.3713 28.3455 19.7444 28.5 20.1333 28.5H25.3333C26.0406 28.5 26.7189 28.219 27.219 27.719C27.719 27.2189 28 26.5406 28 25.8333V13.1667C28 12.7527 27.9036 12.3444 27.7185 11.9741C27.5333 11.6038 27.2645 11.2817 26.9333 11.0333L17.6 4.03333Z" fill="#2F2D2B"/>
</svg>
