<svg width="32" height="32" viewBox="0 0 32 32" fill="none" xmlns="http://www.w3.org/2000/svg">
<path d="M4 14.3333C4 7.85733 10.0528 3 17 3C23.9472 3 30 7.85733 30 14.3333C30 20.8093 23.9472 25.6667 17 25.6667C16.1498 25.6658 15.3217 25.5969 14.5157 25.46C14.3948 25.5573 14.1868 25.7333 13.9307 25.9187C13.191 26.4533 12.1237 27 10.5 27C10.1552 27 9.82456 26.8595 9.58076 26.6095C9.33696 26.3594 9.2 26.0203 9.2 25.6667C9.2 24.9333 9.3859 24.0213 9.0778 23.3253C6.0501 21.2973 4 18.064 4 14.3333Z" fill="#C5CCC7"/>
</svg>
