<svg width="32" height="32" viewBox="0 0 32 32" fill="none" xmlns="http://www.w3.org/2000/svg">
<path d="M21.3333 18.5C23.0513 18.5001 24.7029 19.1219 25.9437 20.2358C27.1845 21.3497 27.9188 22.8697 27.9933 24.4787L28 24.75V26C28.0002 26.6307 27.7461 27.2382 27.2887 27.7007C26.8312 28.1632 26.2042 28.4464 25.5333 28.4938L25.3333 28.5H6.66667C5.9939 28.5002 5.34591 28.262 4.8526 27.8331C4.35929 27.4043 4.05712 26.8164 4.00667 26.1875L4 26V24.75C4.0001 23.1394 4.66339 21.591 5.85155 20.4278C7.0397 19.2645 8.661 18.5761 10.3773 18.5063L10.6667 18.5H21.3333ZM16 3.5C17.7681 3.5 19.4638 4.15848 20.714 5.33058C21.9643 6.50268 22.6667 8.0924 22.6667 9.75C22.6667 11.4076 21.9643 12.9973 20.714 14.1694C19.4638 15.3415 17.7681 16 16 16C14.2319 16 12.5362 15.3415 11.286 14.1694C10.0357 12.9973 9.33333 11.4076 9.33333 9.75C9.33333 8.0924 10.0357 6.50268 11.286 5.33058C12.5362 4.15848 14.2319 3.5 16 3.5Z" fill="#C5CCC7"/>
</svg>
