<svg width="24" height="24" viewBox="0 0 24 24" fill="none" xmlns="http://www.w3.org/2000/svg">
<path d="M12.0001 2C12.7699 1.99939 13.5345 2.12576 14.2631 2.374C13.5726 3.08786 13.1377 4.01009 13.0261 4.99696C12.9145 5.98384 13.1325 6.97991 13.6461 7.82993C14.1598 8.67996 14.9402 9.33618 15.8657 9.69633C16.7913 10.0565 17.81 10.1003 18.7631 9.821L19.0001 9.743V12.527C19.0002 12.643 19.0205 12.758 19.0601 12.867L19.1061 12.974L20.8221 16.407C20.9016 16.566 20.9414 16.7419 20.9381 16.9196C20.9347 17.0974 20.8884 17.2717 20.8029 17.4276C20.7175 17.5835 20.5956 17.7164 20.4476 17.8148C20.2996 17.9133 20.1299 17.9744 19.9531 17.993L19.8381 17.999H4.16209C3.98426 17.9991 3.80906 17.956 3.65151 17.8735C3.49397 17.791 3.35877 17.6715 3.25751 17.5254C3.15625 17.3792 3.09194 17.2106 3.0701 17.0341C3.04825 16.8576 3.06953 16.6785 3.13209 16.512L3.17809 16.407L4.89509 12.974C4.9467 12.8702 4.97986 12.7582 4.99309 12.643L5.00009 12.528V9C5.00009 7.14349 5.73759 5.36301 7.05035 4.05025C8.3631 2.7375 10.1436 2 12.0001 2ZM17.5001 3C18.1631 3 18.799 3.26339 19.2679 3.73224C19.7367 4.20108 20.0001 4.83696 20.0001 5.5C20.0001 6.16304 19.7367 6.79893 19.2679 7.26777C18.799 7.73661 18.1631 8 17.5001 8C16.8371 8 16.2012 7.73661 15.7323 7.26777C15.2635 6.79893 15.0001 6.16304 15.0001 5.5C15.0001 4.83696 15.2635 4.20108 15.7323 3.73224C16.2012 3.26339 16.8371 3 17.5001 3ZM12.0001 21C11.3794 21.0003 10.774 20.8081 10.2671 20.4499C9.76026 20.0917 9.37698 19.5852 9.17009 19H14.8301C14.6232 19.5852 14.2399 20.0917 13.7331 20.4499C13.2262 20.8081 12.6207 21.0003 12.0001 21Z" fill="#2F2D2B"/>
</svg>
