<svg width="24" height="24" viewBox="0 0 24 24" fill="none" xmlns="http://www.w3.org/2000/svg">
<path d="M12.5939 23.2581L12.5819 23.2601L12.5109 23.2951L12.4909 23.2991L12.4769 23.2951L12.4059 23.2591C12.3953 23.2565 12.3873 23.2585 12.3819 23.2651L12.3779 23.2751L12.3609 23.7031L12.3659 23.7231L12.3759 23.7361L12.4799 23.8101L12.4949 23.8141L12.5069 23.8101L12.6109 23.7361L12.6229 23.7201L12.6269 23.7031L12.6099 23.2761C12.6073 23.2655 12.6019 23.2595 12.5939 23.2581ZM12.8579 23.1451L12.8439 23.1471L12.6599 23.2401L12.6499 23.2501L12.6469 23.2611L12.6649 23.6911L12.6699 23.7031L12.6779 23.7111L12.8789 23.8031C12.8916 23.8065 12.9013 23.8038 12.9079 23.7951L12.9119 23.7811L12.8779 23.1671C12.8746 23.1545 12.8679 23.1471 12.8579 23.1451ZM12.1429 23.1471C12.1385 23.1445 12.1333 23.1436 12.1282 23.1447C12.1232 23.1458 12.1188 23.1488 12.1159 23.1531L12.1099 23.1671L12.0759 23.7811C12.0766 23.7931 12.0823 23.8011 12.0929 23.8051L12.1079 23.8031L12.3089 23.7101L12.3189 23.7021L12.3219 23.6911L12.3399 23.2611L12.3369 23.2491L12.3269 23.2391L12.1429 23.1471Z" fill="#2F2D2B"/>
<path d="M11.9999 2.00006C10.1434 2.00006 8.36294 2.73756 7.05018 4.05031C5.73743 5.36307 4.99993 7.14355 4.99993 9.00006V12.5281C5.00008 12.6832 4.96413 12.8362 4.89493 12.9751L3.17793 16.4081C3.09406 16.5758 3.05445 16.7622 3.06288 16.9495C3.07131 17.1368 3.12748 17.3189 3.22608 17.4784C3.32467 17.6379 3.4624 17.7696 3.6262 17.8609C3.78999 17.9522 3.97441 18.0001 4.16193 18.0001H19.8379C20.0255 18.0001 20.2099 17.9522 20.3737 17.8609C20.5375 17.7696 20.6752 17.6379 20.7738 17.4784C20.8724 17.3189 20.9286 17.1368 20.937 16.9495C20.9454 16.7622 20.9058 16.5758 20.8219 16.4081L19.1059 12.9751C19.0364 12.8363 19.0001 12.6833 18.9999 12.5281V9.00006C18.9999 7.14355 18.2624 5.36307 16.9497 4.05031C15.6369 2.73756 13.8564 2.00006 11.9999 2.00006ZM11.9999 21.0001C11.3793 21.0004 10.7738 20.8082 10.2669 20.45C9.7601 20.0918 9.37682 19.5852 9.16993 19.0001H14.8299C14.623 19.5852 14.2398 20.0918 13.7329 20.45C13.2261 20.8082 12.6206 21.0004 11.9999 21.0001Z" fill="#2F2D2B"/>
</svg>
