<svg width="24" height="24" viewBox="0 0 24 24" fill="none" xmlns="http://www.w3.org/2000/svg">
<g clip-path="url(#clip0_266_1519)">
<path fill-rule="evenodd" clip-rule="evenodd" d="M12.3763 13.7657L18.0333 19.4227C18.2219 19.6049 18.4745 19.7057 18.7367 19.7034C18.9989 19.7011 19.2497 19.5959 19.4351 19.4105C19.6205 19.2251 19.7257 18.9743 19.728 18.7121C19.7302 18.4499 19.6294 18.1973 19.4473 18.0087L13.7903 12.3517L19.4473 6.69471C19.6294 6.50611 19.7302 6.25351 19.728 5.99131C19.7257 5.72911 19.6205 5.4783 19.4351 5.29289C19.2497 5.10749 18.9989 5.00232 18.7367 5.00004C18.4745 4.99776 18.2219 5.09855 18.0333 5.28071L12.3763 10.9377L6.71929 5.28071C6.52984 5.10306 6.2787 5.00608 6.01902 5.01029C5.75934 5.01451 5.51148 5.11959 5.3279 5.30331C5.14432 5.48702 5.03941 5.73495 5.03537 5.99463C5.03134 6.25432 5.1285 6.50539 5.30629 6.69471L10.9623 12.3517L5.30529 18.0087C5.20978 18.101 5.1336 18.2113 5.08119 18.3333C5.02878 18.4553 5.00119 18.5865 5.00004 18.7193C4.99888 18.8521 5.02419 18.9838 5.07447 19.1067C5.12475 19.2296 5.199 19.3412 5.29289 19.4351C5.38679 19.529 5.49844 19.6033 5.62133 19.6535C5.74423 19.7038 5.87591 19.7291 6.00869 19.728C6.14147 19.7268 6.27269 19.6992 6.39469 19.6468C6.5167 19.5944 6.62704 19.5182 6.71929 19.4227L12.3763 13.7657Z" fill="#2F2D2B"/>
</g>
<defs>
<clipPath id="clip0_266_1519">
<rect width="24" height="24" fill="white"/>
</clipPath>
</defs>
</svg>
