<svg width="24" height="24" viewBox="0 0 24 24" fill="none" xmlns="http://www.w3.org/2000/svg">
<path fill-rule="evenodd" clip-rule="evenodd" d="M9.96505 2.80904C9.7659 2.66329 9.53406 2.56857 9.28982 2.53318C9.04558 2.49779 8.79639 2.52281 8.56405 2.60604C7.47775 3.0042 6.46878 3.58786 5.58205 4.33104C5.39421 4.49052 5.24824 4.69356 5.15691 4.92243C5.06557 5.15129 5.03163 5.39904 5.05805 5.64404C5.13305 6.39704 5.00005 7.12404 4.63805 7.75004C4.27705 8.37704 3.71305 8.85604 3.02305 9.16704C2.79735 9.26692 2.59957 9.4206 2.44703 9.61463C2.29449 9.80867 2.19183 10.0371 2.14805 10.28C1.94935 11.4181 1.94935 12.582 2.14805 13.72C2.24105 14.257 2.60805 14.646 3.02305 14.834C3.71305 15.144 4.27705 15.624 4.63905 16.25C5.00005 16.877 5.13305 17.603 5.05805 18.356C5.01305 18.808 5.16505 19.32 5.58205 19.669C6.46878 20.4122 7.47775 20.9959 8.56405 21.394C8.79625 21.4771 9.04525 21.502 9.2893 21.4666C9.53334 21.4312 9.76501 21.3366 9.96405 21.191C10.5791 20.749 11.2761 20.5 12.0001 20.5C12.7241 20.5 13.4201 20.749 14.0351 21.191C14.4051 21.457 14.9251 21.581 15.4361 21.394C16.5224 20.9959 17.5313 20.4122 18.4181 19.669C18.8351 19.32 18.9881 18.809 18.9421 18.356C18.8671 17.603 18.9991 16.876 19.3621 16.25C19.7231 15.623 20.2871 15.145 20.9771 14.834C21.3911 14.647 21.7591 14.257 21.8521 13.72C22.0508 12.582 22.0508 11.4181 21.8521 10.28C21.8083 10.0371 21.7056 9.80867 21.5531 9.61463C21.4005 9.4206 21.2028 9.26692 20.9771 9.16704C20.2871 8.85604 19.7231 8.37704 19.3611 7.75004C18.9991 7.12404 18.8671 6.39704 18.9421 5.64404C18.9685 5.39904 18.9345 5.15129 18.8432 4.92243C18.7519 4.69356 18.6059 4.49052 18.4181 4.33104C17.5313 3.58786 16.5224 3.0042 15.4361 2.60604C15.2039 2.52298 14.9549 2.49806 14.7108 2.53345C14.4668 2.56883 14.2351 2.66345 14.0361 2.80904C13.4201 3.25004 12.7231 3.50004 12.0001 3.50004C11.2771 3.50004 10.5801 3.25104 9.96505 2.80904ZM9.00005 12C9.00005 11.2044 9.31612 10.4413 9.87873 9.87872C10.4413 9.31611 11.2044 9.00004 12.0001 9.00004C12.7957 9.00004 13.5588 9.31611 14.1214 9.87872C14.684 10.4413 15.0001 11.2044 15.0001 12C15.0001 12.7957 14.684 13.5587 14.1214 14.1214C13.5588 14.684 12.7957 15 12.0001 15C11.2044 15 10.4413 14.684 9.87873 14.1214C9.31612 13.5587 9.00005 12.7957 9.00005 12Z" fill="#2F2D2B"/>
</svg>
