<svg width="285" height="305" viewBox="0 0 285 305" fill="none" xmlns="http://www.w3.org/2000/svg">
<path d="M27.998 8V44" stroke="#2F2D2B" stroke-width="2" stroke-linecap="round"/>
<path d="M46 25.9979L10 25.9979" stroke="#2F2D2B" stroke-width="2" stroke-linecap="round"/>
<path d="M36.5186 17.4783L19.4782 34.5187" stroke="#2F2D2B" stroke-width="2" stroke-linecap="round"/>
<path d="M36.5186 34.5187L19.4782 17.4783" stroke="#2F2D2B" stroke-width="2" stroke-linecap="round"/>
<path d="M237.998 268V304" stroke="#2F2D2B" stroke-width="2" stroke-linecap="round"/>
<path d="M256 285.998L220 285.998" stroke="#2F2D2B" stroke-width="2" stroke-linecap="round"/>
<path d="M246.519 277.478L229.478 294.519" stroke="#2F2D2B" stroke-width="2" stroke-linecap="round"/>
<path d="M246.519 294.519L229.478 277.478" stroke="#2F2D2B" stroke-width="2" stroke-linecap="round"/>
<circle cx="275" cy="123" r="9" fill="#EAF4D3" stroke="#2F2D2B" stroke-width="2"/>
<circle cx="14" cy="254" r="13" fill="#EAF4D3" stroke="#2F2D2B" stroke-width="2"/>
<mask id="path-11-outside-1_453_2976" maskUnits="userSpaceOnUse" x="77" y="77.7584" width="124" height="155" fill="black">
<rect fill="white" x="77" y="77.7584" width="124" height="155"/>
<path d="M198.999 109.824H199V229.824H79V109.824H79.001L94.6523 79.7584H183.348L198.999 109.824Z"/>
</mask>
<path d="M198.999 109.824H199V229.824H79V109.824H79.001L94.6523 79.7584H183.348L198.999 109.824Z" fill="#F9F7D4"/>
<path d="M198.999 109.824L197.241 110.739L197.796 111.806H198.999V109.824ZM199 109.824H200.982V107.842H199V109.824ZM199 229.824V231.806H200.982V229.824H199ZM79 229.824H77.0178V231.806H79V229.824ZM79 109.824V107.842H77.0178V109.824H79ZM79.001 109.824V111.806H80.2038L80.7592 110.739L79.001 109.824ZM94.6523 79.7584V77.7762H93.4495L92.8941 78.8431L94.6523 79.7584ZM183.348 79.7584L185.106 78.8431L184.55 77.7762H183.348V79.7584ZM198.999 109.824V111.806H199V109.824V107.842H198.999V109.824ZM199 109.824H197.018V229.824H199H200.982V109.824H199ZM199 229.824V227.842H79V229.824V231.806H199V229.824ZM79 229.824H80.9822V109.824H79H77.0178V229.824H79ZM79 109.824V111.806H79.001V109.824V107.842H79V109.824ZM79.001 109.824L80.7592 110.739L96.4106 80.6737L94.6523 79.7584L92.8941 78.8431L77.2427 108.909L79.001 109.824ZM94.6523 79.7584V81.7406H183.348V79.7584V77.7762H94.6523V79.7584ZM183.348 79.7584L181.589 80.6737L197.241 110.739L198.999 109.824L200.757 108.909L185.106 78.8431L183.348 79.7584Z" fill="#2F2D2B" mask="url(#path-11-outside-1_453_2976)"/>
<mask id="path-13-outside-2_453_2976" maskUnits="userSpaceOnUse" x="86.835" y="145.239" width="105" height="77" fill="black">
<rect fill="white" x="86.835" y="145.239" width="105" height="77"/>
<path d="M116.286 147.239C132.08 147.216 139.926 155.826 155.715 156.239C168.884 156.583 189.111 151.568 189.165 151.555V220.097H88.835V151.555C88.835 151.555 105.434 147.255 116.286 147.239Z"/>
</mask>
<path d="M116.286 147.239C132.08 147.216 139.926 155.826 155.715 156.239C168.884 156.583 189.111 151.568 189.165 151.555V220.097H88.835V151.555C88.835 151.555 105.434 147.255 116.286 147.239Z" fill="#A1CBAF"/>
<path d="M116.286 147.239L116.283 145.257L116.283 145.257L116.286 147.239ZM155.715 156.239L155.663 158.221L155.663 158.221L155.715 156.239ZM189.165 151.555H191.147V149.021L188.688 149.631L189.165 151.555ZM189.165 220.097V222.079H191.147V220.097H189.165ZM88.835 220.097H86.8528V222.079H88.835V220.097ZM88.835 151.555L88.3379 149.636L86.8528 150.02V151.555H88.835ZM116.286 147.239L116.289 149.221C123.797 149.21 129.413 151.236 135.311 153.433C141.204 155.629 147.398 158.005 155.663 158.221L155.715 156.239L155.767 154.258C148.243 154.061 142.62 151.925 136.694 149.718C130.774 147.513 124.569 145.245 116.283 145.257L116.286 147.239ZM155.715 156.239L155.663 158.221C162.461 158.398 170.977 157.198 177.71 155.982C184.478 154.759 189.593 153.491 189.642 153.478L189.165 151.555L188.688 149.631C188.578 149.658 168.619 154.594 155.767 154.258L155.715 156.239ZM189.165 151.555H187.183V220.097H189.165H191.147V151.555H189.165ZM189.165 220.097V218.114H88.835V220.097V222.079H189.165V220.097ZM88.835 220.097H90.8172V151.555H88.835H86.8528V220.097H88.835ZM88.835 151.555C89.332 153.473 89.3319 153.473 89.3319 153.473C89.332 153.473 89.332 153.473 89.3322 153.473C89.3325 153.473 89.333 153.473 89.3338 153.473C89.3355 153.473 89.3381 153.472 89.3417 153.471C89.3489 153.469 89.3601 153.466 89.3751 153.462C89.4052 153.455 89.4508 153.443 89.5112 153.428C89.632 153.397 89.8119 153.352 90.0457 153.294C90.5133 153.178 91.1956 153.012 92.0493 152.813C93.7574 152.413 96.1472 151.881 98.8716 151.348C104.356 150.276 111.063 149.229 116.289 149.221L116.286 147.239L116.283 145.257C110.657 145.265 103.639 146.376 98.1106 147.457C95.3287 148.001 92.8905 148.545 91.147 148.952C90.275 149.156 89.5757 149.326 89.0931 149.446C88.8518 149.505 88.6646 149.552 88.5369 149.585C88.473 149.601 88.4241 149.614 88.3907 149.622C88.374 149.626 88.3612 149.63 88.3524 149.632C88.348 149.633 88.3446 149.634 88.3421 149.635C88.3409 149.635 88.34 149.635 88.3393 149.635C88.3389 149.635 88.3386 149.636 88.3384 149.636C88.3381 149.636 88.3379 149.636 88.835 151.555Z" fill="#2F2D2B" mask="url(#path-13-outside-2_453_2976)"/>
<path d="M139 90.6678L139 31.5249" stroke="#2F2D2B" stroke-width="1.9822" stroke-linecap="round"/>
<path d="M135.572 90.6677H142.429" stroke="#2F2D2B" stroke-width="1.9822" stroke-linecap="round"/>
<path d="M214.723 43.0036C212.3 32.7969 216.259 20.5738 230.538 22.0582C236.421 22.6697 244.269 28.5764 243.475 35.6543C242.863 41.1144 234.844 44.4356 229.032 33.7144C224.704 25.7316 229.362 4.73583 248.107 8.11045" stroke="#2F2D2B" stroke-width="2"/>
</svg>
