<?xml version="1.0" standalone="no"?>
<!DOCTYPE svg PUBLIC "-//W3C//DTD SVG 20010904//EN"
 "http://www.w3.org/TR/2001/REC-SVG-20010904/DTD/svg10.dtd">
<svg version="1.0" xmlns="http://www.w3.org/2000/svg"
 width="96.000000pt" height="96.000000pt" viewBox="0 0 96.000000 96.000000"
 preserveAspectRatio="xMidYMid meet">

<g transform="translate(0.000000,96.000000) scale(0.100000,-0.100000)"
fill="#000000" stroke="none">
<path d="M338 811 c-127 -42 -217 -133 -234 -239 -13 -85 55 -215 136 -257
l29 -15 -20 -67 c-21 -76 -24 -103 -9 -103 6 0 51 27 100 60 83 56 93 60 147
60 119 1 211 38 290 116 83 83 102 186 52 285 -26 53 -111 125 -177 150 -80
31 -235 36 -314 10z"/>
</g>
</svg>
