<svg width="289" height="216" viewBox="0 0 289 216" fill="none" xmlns="http://www.w3.org/2000/svg">
<path d="M245.746 125.744C245.51 126.525 245.146 127.665 244.64 129.087C243.627 131.933 242.047 135.91 239.78 140.423C235.243 149.457 227.974 160.597 217.038 169.129C206.101 177.66 193.528 181.998 183.661 184.2C178.732 185.3 174.489 185.866 171.483 186.155C169.98 186.3 168.786 186.375 167.971 186.415C167.938 186.416 167.905 186.417 167.873 186.418C167.882 186.387 167.89 186.356 167.9 186.324C168.137 185.543 168.501 184.404 169.007 182.981C170.019 180.135 171.6 176.158 173.867 171.645C178.404 162.611 185.672 151.471 196.608 142.94C207.545 134.408 220.119 130.07 229.986 127.867C234.915 126.767 239.157 126.203 242.164 125.913C243.667 125.768 244.86 125.693 245.676 125.653C245.709 125.652 245.743 125.65 245.775 125.649C245.766 125.68 245.756 125.712 245.746 125.744Z" fill="#A1CBAF" stroke="#2F2D2B" stroke-width="1.69472"/>
<path d="M216.319 149.355L168.346 186.777" stroke="#2F2D2B" stroke-width="1.69472" stroke-linecap="round"/>
<path d="M282.676 170.174C282.067 170.863 281.161 171.86 279.976 173.079C277.606 175.519 274.126 178.851 269.691 182.41C260.815 189.533 248.152 197.536 232.953 201.15C217.753 204.763 202.844 203.313 191.712 200.946C186.15 199.764 181.542 198.354 178.328 197.242C176.721 196.686 175.462 196.204 174.608 195.862C174.525 195.829 174.446 195.794 174.37 195.763C174.424 195.702 174.479 195.636 174.539 195.569C175.147 194.879 176.055 193.883 177.24 192.663C179.61 190.223 183.09 186.892 187.525 183.333C196.401 176.21 209.063 168.207 224.263 164.594C239.463 160.981 254.372 162.43 265.504 164.797C271.066 165.98 275.673 167.389 278.888 168.501C280.494 169.057 281.752 169.539 282.606 169.88C282.69 169.914 282.77 169.947 282.845 169.978C282.791 170.04 282.736 170.106 282.676 170.174Z" fill="#A1CBAF" stroke="#2F2D2B" stroke-width="1.69472"/>
<path d="M241.446 180.483L174.863 196.311" stroke="#2F2D2B" stroke-width="1.69472" stroke-linecap="round"/>
<path d="M206 73.8477C216.025 73.8477 224.152 81.9746 224.152 92C224.152 102.025 216.025 110.152 206 110.152H167.848V73.8477H206Z" stroke="#2F2D2B" stroke-width="1.69472"/>
<path d="M100.836 162.281C128.63 162.281 153.763 165.248 171.922 170.029C181.008 172.421 188.3 175.256 193.3 178.369C198.345 181.51 200.824 184.781 200.824 187.984C200.824 191.187 198.345 194.459 193.3 197.599C188.3 200.712 181.007 203.546 171.922 205.938C153.763 210.72 128.63 213.687 100.836 213.687C73.0421 213.687 47.909 210.72 29.75 205.938C20.6643 203.546 13.3723 200.712 8.37207 197.599C3.32688 194.459 0.847756 191.187 0.847656 187.984C0.847656 184.781 3.32683 181.51 8.37207 178.369C13.3723 175.256 20.6642 172.421 29.75 170.029C47.909 165.248 73.0421 162.281 100.836 162.281Z" fill="#FDFDF4" stroke="#2F2D2B" stroke-width="1.69472"/>
<path d="M161.853 184C168.296 185.686 172 187.66 172 189.77C172 195.972 139.988 201 100.5 201C61.0116 201 29 195.972 29 189.77C29 187.66 32.7042 185.686 39.1469 184" stroke="#2F2D2B" stroke-width="1.69472" stroke-linecap="round"/>
<path d="M189.526 63.4224V131.494C189.525 162.224 164.614 187.136 133.883 187.136H67.7883C37.0577 187.136 12.146 162.224 12.1458 131.494V63.4224H189.526Z" fill="#FDFDF4" stroke="#2F2D2B" stroke-width="1.69472"/>
<path d="M61.4336 101.271C72.057 101.271 81.8062 103.841 88.9111 106.421C92.4604 107.709 95.3422 108.997 97.334 109.962C98.3298 110.444 99.103 110.844 99.625 111.124C99.8859 111.263 100.084 111.373 100.216 111.447C100.282 111.484 100.332 111.512 100.364 111.53C100.38 111.539 100.392 111.546 100.399 111.551C100.403 111.553 100.407 111.554 100.408 111.555L100.41 111.556L100.456 111.583L100.505 111.604H100.506C100.507 111.605 100.508 111.606 100.509 111.606C100.512 111.607 100.516 111.609 100.521 111.611C100.53 111.615 100.546 111.621 100.564 111.629C100.602 111.644 100.657 111.668 100.729 111.697C100.875 111.756 101.089 111.842 101.367 111.95C101.924 112.167 102.741 112.475 103.785 112.84C105.872 113.569 108.87 114.529 112.521 115.454C119.819 117.302 129.759 119.02 140.282 118.466C150.804 117.912 160.74 115.146 168.032 112.528C171.682 111.218 174.678 109.942 176.763 108.993C177.587 108.617 178.268 108.291 178.793 108.035V130.364C178.793 156.727 157.421 178.098 131.059 178.098H70.6133C44.2503 178.098 22.8791 156.727 22.8789 130.364V107.274C22.9471 107.252 23.0216 107.228 23.1016 107.202C23.6258 107.034 24.4011 106.793 25.3994 106.503C27.3971 105.922 30.2879 105.147 33.8477 104.372C40.9702 102.82 50.7579 101.271 61.4336 101.271Z" fill="#A1CBAF" stroke="#2F2D2B" stroke-width="1.69472"/>
<path d="M101.308 1.14041C101.144 1.0468 100.981 0.953201 100.818 0.859598C100.083 1.50556 99.4235 2.20454 98.797 2.94518C92.9592 9.62052 91.0195 21.0309 96.1809 29.9056C96.3556 30.2243 96.5215 30.538 96.6797 30.8472C99.2444 35.8868 101.061 41.4044 100.989 49.0288C100.973 49.934 100.929 50.8706 100.824 51.792C100.983 51.8927 101.142 51.9933 101.301 52.0939C102.106 51.5078 102.833 50.8406 103.521 50.1157C109.302 44.2689 111.069 33.7318 106.738 25.7021C106.493 25.2222 106.228 24.744 105.945 24.2686C102.648 18.917 100.779 12.2972 101.09 3.869C101.127 2.97359 101.189 2.05102 101.308 1.14041Z" fill="#2F2D2B"/>
<path d="M138.097 63.7047V91.95" stroke="#2F2D2B" stroke-width="1.69472"/>
<mask id="path-12-outside-1_527_2888" maskUnits="userSpaceOnUse" x="118.097" y="89.9998" width="40" height="42" fill="black">
<rect fill="white" x="118.097" y="89.9998" width="40" height="42"/>
<path d="M156.097 130H120.097V102L128.347 91.9998H147.847L156.097 102V130Z"/>
</mask>
<path d="M156.097 130H120.097V102L128.347 91.9998H147.847L156.097 102V130Z" fill="#F9F7D4"/>
<path d="M156.097 130V131.694H157.791V130H156.097ZM120.097 130H118.402V131.694H120.097V130ZM120.097 102L118.789 100.921L118.402 101.391V102H120.097ZM128.347 91.9998V90.305H127.548L127.039 90.9213L128.347 91.9998ZM147.847 91.9998L149.154 90.9213L148.646 90.305H147.847V91.9998ZM156.097 102H157.791V101.391L157.404 100.921L156.097 102ZM156.097 130V128.305H120.097V130V131.694H156.097V130ZM120.097 130H121.791V102H120.097H118.402V130H120.097ZM120.097 102L121.404 103.078L129.654 93.0782L128.347 91.9998L127.039 90.9213L118.789 100.921L120.097 102ZM128.347 91.9998V93.6945H147.847V91.9998V90.305H128.347V91.9998ZM147.847 91.9998L146.539 93.0782L154.789 103.078L156.097 102L157.404 100.921L149.154 90.9213L147.847 91.9998ZM156.097 102H154.402V130H156.097H157.791V102H156.097Z" fill="#2F2D2B" mask="url(#path-12-outside-1_527_2888)"/>
</svg>
