<svg width="20" height="20" viewBox="0 0 20 20" fill="none" xmlns="http://www.w3.org/2000/svg">
<g clip-path="url(#clip0_345_1640)">
<path fill-rule="evenodd" clip-rule="evenodd" d="M13.0891 9.41071C13.2454 9.56698 13.3331 9.77891 13.3331 9.99988C13.3331 10.2208 13.2454 10.4328 13.0891 10.589L8.37497 15.3032C8.2981 15.3828 8.20615 15.4463 8.10448 15.49C8.00281 15.5336 7.89346 15.5566 7.78281 15.5576C7.67216 15.5585 7.56243 15.5375 7.46001 15.4956C7.3576 15.4537 7.26456 15.3918 7.18631 15.3135C7.10807 15.2353 7.04619 15.1423 7.00429 15.0398C6.96239 14.9374 6.9413 14.8277 6.94227 14.717C6.94323 14.6064 6.96622 14.497 7.00989 14.3954C7.05356 14.2937 7.11705 14.2017 7.19664 14.1249L11.3216 9.99988L7.19664 5.87488C7.04484 5.71771 6.96085 5.50721 6.96275 5.28871C6.96464 5.07021 7.05229 4.8612 7.20679 4.70669C7.3613 4.55219 7.57031 4.46455 7.78881 4.46265C8.0073 4.46075 8.21781 4.54474 8.37497 4.69654L13.0891 9.41071Z" fill="#7C7C7C"/>
</g>
<defs>
<clipPath id="clip0_345_1640">
<rect width="20" height="20" fill="white" transform="matrix(-1 0 0 -1 20 20)"/>
</clipPath>
</defs>
</svg>
